M48
; DRILL file {KiCad (6.0.0)} date Thu Feb 10 17:28:02 2022
; FORMAT={-:-/ absolute / inch / decimal}
; #@! TF.CreationDate,2022-02-10T17:28:02+01:00
; #@! TF.GenerationSoftware,Kicad,Pcbnew,(6.0.0)
; #@! TF.FileFunction,Plated,1,2,PTH
FMAT,2
INCH
; #@! TA.AperFunction,Plated,PTH,ViaDrill
T1C0.0157
; #@! TA.AperFunction,Plated,PTH,ComponentDrill
T2C0.0197
; #@! TA.AperFunction,Plated,PTH,ComponentDrill
T3C0.0236
; #@! TA.AperFunction,Plated,PTH,ComponentDrill
T4C0.0256
; #@! TA.AperFunction,Plated,PTH,ComponentDrill
T5C0.0300
; #@! TA.AperFunction,Plated,PTH,ViaDrill
T6C0.0315
; #@! TA.AperFunction,Plated,PTH,ComponentDrill
T7C0.0315
; #@! TA.AperFunction,Plated,PTH,ComponentDrill
T8C0.0394
; #@! TA.AperFunction,Plated,PTH,ComponentDrill
T9C0.0433
; #@! TA.AperFunction,Plated,PTH,ComponentDrill
T10C0.0512
; #@! TA.AperFunction,Plated,PTH,ComponentDrill
T11C0.1260
%
G90
G05
T1
X2.3031Y-2.5787
X2.3858Y-2.8504
X2.937Y-4.3465
X3.4173Y-3.2205
X3.5197Y-5.3898
X3.6535Y-2.3622
X3.7008Y-2.3858
X3.7008Y-2.4488
X3.7013Y-2.4955
X3.7874Y-3.1181
X3.8031Y-4.5748
X3.9291Y-2.815
X3.9567Y-3.1181
X4.1339Y-2.6772
X4.1969Y-3.6929
X4.2047Y-3.5118
X4.2244Y-2.9724
X4.3386Y-2.7087
X4.5748Y-2.5512
X5.0787Y-3.4331
X5.1811Y-2.8465
X5.189Y-2.5591
X5.2047Y-2.7756
X5.2146Y-2.4843
X5.2598Y-2.6142
X5.3425Y-2.6299
X5.3425Y-2.6693
X5.3425Y-2.7087
X5.3425Y-2.748
X5.3819Y-2.6299
X5.3819Y-2.6693
X5.3819Y-2.7087
X5.3819Y-2.748
X5.4213Y-2.6299
X5.4213Y-2.6693
X5.4213Y-2.7087
X5.4213Y-2.748
X5.4606Y-2.6299
X5.4606Y-2.6693
X5.4606Y-2.7087
X5.4606Y-2.748
X5.685Y-3.8071
X5.7008Y-2.4961
X5.7047Y-2.6457
X5.7323Y-4.1614
X5.7441Y-4.2677
X5.9606Y-4.1693
X5.9606Y-4.2677
X6.4803Y-4.4173
X6.5189Y-4.2441
X6.6535Y-3.185
X6.6575Y-3.0866
X6.685Y-4.2441
X6.8268Y-4.2441
X7.1339Y-3.3701
X7.1496Y-3.0551
X7.3543Y-3.2441
X7.4173Y-3.0551
X7.4331Y-2.8898
X7.4331Y-3.3701
X7.4921Y-2.2244
X7.7047Y-2.5315
X7.9606Y-5.2598
X7.9685Y-2.9646
X7.9724Y-2.8622
X8.8661Y-3.1299
T2
X1.7538Y-5.8831
X1.7588Y-2.0631
X1.7815Y-5.8163
X1.7815Y-5.95
X1.7865Y-1.9963
X1.7865Y-2.13
X1.8483Y-5.7887
X1.8483Y-5.9776
X1.8533Y-1.9687
X1.8533Y-2.1576
X1.9151Y-5.8163
X1.9151Y-5.95
X1.9201Y-1.9963
X1.9201Y-2.13
X1.9428Y-5.8831
X1.9478Y-2.0631
X8.9119Y-2.0631
X8.9119Y-5.8831
X8.9395Y-1.9963
X8.9395Y-2.13
X8.9395Y-5.8163
X8.9395Y-5.95
X9.0063Y-1.9687
X9.0063Y-2.1576
X9.0063Y-5.7887
X9.0063Y-5.9776
X9.0732Y-1.9963
X9.0732Y-2.13
X9.0732Y-5.8163
X9.0732Y-5.95
X9.1008Y-2.0631
X9.1008Y-5.8831
T5
X1.9064Y-2.6162
X2.1033Y-2.6162
T6
X3.2126Y-3.2283
X3.252Y-2.1969
X3.2992Y-2.1969
X3.3465Y-2.1969
X3.5039Y-2.1142
X3.563Y-3.1181
X3.6142Y-2.1142
X3.6732Y-2.2323
X3.7087Y-2.7323
X3.7283Y-2.8465
X3.748Y-2.626
X3.7717Y-3.0433
X3.8268Y-2.0157
X3.8268Y-2.063
X3.8268Y-2.1102
X3.8819Y-2.7047
X3.8858Y-2.3465
X3.9055Y-5.1181
X3.9409Y-2.5709
X4.0787Y-2.7638
X4.0787Y-3.0197
X4.1936Y-3.0806
X4.252Y-2.3307
X4.252Y-2.5689
X4.2992Y-2.1024
X4.3543Y-2.1024
X4.3701Y-2.8319
X4.3701Y-3.0052
X4.4094Y-2.1024
X4.4646Y-2.1024
X4.4646Y-2.5906
X4.5394Y-2.2559
X4.5827Y-2.2559
X4.626Y-2.2559
X5.2441Y-2.9843
X6.4331Y-2.1181
X6.4331Y-2.252
X6.6063Y-4.2441
X7.3386Y-4.1102
X7.5276Y-3.0315
X7.6693Y-3.0315
X7.7323Y-3.1535
X8.1181Y-3.9055
X8.3386Y-2.1024
X8.4252Y-2.1024
X8.5748Y-4.1102
X8.5748Y-4.4331
X8.5748Y-4.7559
X8.6299Y-3.9843
X8.6299Y-4.3071
X8.6299Y-4.6299
X8.6929Y-3.2913
X8.8504Y-3.9764
X8.8504Y-4.2992
X8.8504Y-4.622
X8.8661Y-3.2913
X9.0039Y-2.9528
T7
X3.3233Y-5.0031
X3.3233Y-5.1031
X3.6233Y-5.0031
X3.6233Y-5.1031
X3.6533Y-3.5131
X3.7533Y-3.4131
X3.8533Y-3.5131
X4.1033Y-4.4581
X4.3033Y-4.4581
T8
X1.973Y-3.108
X1.973Y-3.208
X1.973Y-3.308
X1.973Y-3.408
X3.0085Y-5.009
X3.0085Y-5.4814
X4.6883Y-2.4331
X4.6883Y-2.5331
X4.6883Y-2.6331
X4.6883Y-2.7331
X4.6883Y-2.8331
X4.6883Y-2.9331
X4.6883Y-3.0331
X4.6883Y-3.1331
X4.6883Y-3.2331
X4.6883Y-3.3331
X4.6883Y-3.4331
X4.7983Y-2.4331
X4.7983Y-2.5331
X4.7983Y-2.6331
X4.7983Y-2.7331
X4.7983Y-2.8331
X4.7983Y-2.9331
X4.7983Y-3.0331
X4.7983Y-3.1331
X4.7983Y-3.2331
X4.7983Y-3.3331
X4.7983Y-3.4331
X5.2433Y-3.2381
X5.2433Y-3.3831
X5.2655Y-4.628
X5.3433Y-3.2381
X5.3433Y-3.3831
X5.3655Y-4.628
X5.4433Y-3.2381
X5.4433Y-3.3831
X5.4655Y-4.628
X5.5433Y-3.2381
X5.5433Y-3.3831
X5.5655Y-4.628
X5.6433Y-3.2381
X5.6433Y-3.3831
X6.0883Y-2.4331
X6.0883Y-2.5331
X6.0883Y-2.6331
X6.0883Y-2.7331
X6.0883Y-2.8331
X6.0883Y-2.9331
X6.0883Y-3.0331
X6.0883Y-3.1331
X6.0883Y-3.2331
X6.0883Y-3.3331
X6.0883Y-3.4331
X6.1983Y-2.4331
X6.1983Y-2.5331
X6.1983Y-2.6331
X6.1983Y-2.7331
X6.1983Y-2.8331
X6.1983Y-2.9331
X6.1983Y-3.0331
X6.1983Y-3.1331
X6.1983Y-3.2331
X6.1983Y-3.3331
X6.1983Y-3.4331
T9
X2.6242Y-4.2228
X2.6242Y-4.3228
X2.6242Y-4.4228
T10
X2.1033Y-3.9531
X2.1033Y-4.1531
X2.1033Y-4.3581
X2.1033Y-4.5581
X2.1033Y-5.0481
X2.1033Y-5.2481
X2.1033Y-5.4481
X2.5263Y-5.4834
X2.5282Y-5.009
X3.0853Y-5.2471
T11
X1.8483Y-5.8831
X1.8533Y-2.0631
X9.0063Y-2.0631
X9.0063Y-5.8831
T3
G00X3.0246Y-2.024
M15
G01X3.0246Y-1.9965
M16
G05
G00X3.3533Y-2.024
M15
G01X3.3533Y-1.9965
M16
G05
T4
G00X3.1014Y-2.1323
M15
G01X3.1014Y-2.1244
M16
G05
G00X3.2766Y-2.1323
M15
G01X3.2766Y-2.1244
M16
G05
T0
M30
