%TF.GenerationSoftware,KiCad,Pcbnew,(6.0.0)*%
%TF.CreationDate,2022-02-10T17:27:59+01:00*%
%TF.ProjectId,ESP32IoTPlatform,45535033-3249-46f5-9450-6c6174666f72,rev?*%
%TF.SameCoordinates,Original*%
%TF.FileFunction,Copper,L1,Top*%
%TF.FilePolarity,Positive*%
%FSLAX46Y46*%
G04 Gerber Fmt 4.6, Leading zero omitted, Abs format (unit mm)*
G04 Created by KiCad (PCBNEW (6.0.0)) date 2022-02-10 17:27:59*
%MOMM*%
%LPD*%
G01*
G04 APERTURE LIST*
G04 Aperture macros list*
%AMRoundRect*
0 Rectangle with rounded corners*
0 $1 Rounding radius*
0 $2 $3 $4 $5 $6 $7 $8 $9 X,Y pos of 4 corners*
0 Add a 4 corners polygon primitive as box body*
4,1,4,$2,$3,$4,$5,$6,$7,$8,$9,$2,$3,0*
0 Add four circle primitives for the rounded corners*
1,1,$1+$1,$2,$3*
1,1,$1+$1,$4,$5*
1,1,$1+$1,$6,$7*
1,1,$1+$1,$8,$9*
0 Add four rect primitives between the rounded corners*
20,1,$1+$1,$2,$3,$4,$5,0*
20,1,$1+$1,$4,$5,$6,$7,0*
20,1,$1+$1,$6,$7,$8,$9,0*
20,1,$1+$1,$8,$9,$2,$3,0*%
%AMRotRect*
0 Rectangle, with rotation*
0 The origin of the aperture is its center*
0 $1 length*
0 $2 width*
0 $3 Rotation angle, in degrees counterclockwise*
0 Add horizontal line*
21,1,$1,$2,0,0,$3*%
G04 Aperture macros list end*
%TA.AperFunction,SMDPad,CuDef*%
%ADD10R,1.800000X2.500000*%
%TD*%
%TA.AperFunction,ComponentPad*%
%ADD11R,2.000000X1.905000*%
%TD*%
%TA.AperFunction,ComponentPad*%
%ADD12O,2.000000X1.905000*%
%TD*%
%TA.AperFunction,SMDPad,CuDef*%
%ADD13RoundRect,0.243750X-0.456250X0.243750X-0.456250X-0.243750X0.456250X-0.243750X0.456250X0.243750X0*%
%TD*%
%TA.AperFunction,SMDPad,CuDef*%
%ADD14RoundRect,0.250000X1.025000X-0.787500X1.025000X0.787500X-1.025000X0.787500X-1.025000X-0.787500X0*%
%TD*%
%TA.AperFunction,SMDPad,CuDef*%
%ADD15RoundRect,0.243750X0.456250X-0.243750X0.456250X0.243750X-0.456250X0.243750X-0.456250X-0.243750X0*%
%TD*%
%TA.AperFunction,SMDPad,CuDef*%
%ADD16RoundRect,0.243750X0.243750X0.456250X-0.243750X0.456250X-0.243750X-0.456250X0.243750X-0.456250X0*%
%TD*%
%TA.AperFunction,SMDPad,CuDef*%
%ADD17R,0.400000X1.350000*%
%TD*%
%TA.AperFunction,ComponentPad*%
%ADD18O,1.000000X1.900000*%
%TD*%
%TA.AperFunction,SMDPad,CuDef*%
%ADD19R,2.900000X1.900000*%
%TD*%
%TA.AperFunction,SMDPad,CuDef*%
%ADD20R,0.875000X1.900000*%
%TD*%
%TA.AperFunction,ComponentPad*%
%ADD21O,1.050000X1.250000*%
%TD*%
%TA.AperFunction,SMDPad,CuDef*%
%ADD22RoundRect,0.243750X-0.243750X-0.456250X0.243750X-0.456250X0.243750X0.456250X-0.243750X0.456250X0*%
%TD*%
%TA.AperFunction,SMDPad,CuDef*%
%ADD23RoundRect,0.062500X-0.062500X0.350000X-0.062500X-0.350000X0.062500X-0.350000X0.062500X0.350000X0*%
%TD*%
%TA.AperFunction,SMDPad,CuDef*%
%ADD24RoundRect,0.062500X-0.350000X0.062500X-0.350000X-0.062500X0.350000X-0.062500X0.350000X0.062500X0*%
%TD*%
%TA.AperFunction,SMDPad,CuDef*%
%ADD25R,2.600000X2.600000*%
%TD*%
%TA.AperFunction,SMDPad,CuDef*%
%ADD26R,1.220000X0.650000*%
%TD*%
%TA.AperFunction,SMDPad,CuDef*%
%ADD27R,0.900000X0.800000*%
%TD*%
%TA.AperFunction,SMDPad,CuDef*%
%ADD28R,2.160000X1.120000*%
%TD*%
%TA.AperFunction,SMDPad,CuDef*%
%ADD29R,1.060000X0.650000*%
%TD*%
%TA.AperFunction,SMDPad,CuDef*%
%ADD30R,0.800000X0.900000*%
%TD*%
%TA.AperFunction,SMDPad,CuDef*%
%ADD31R,0.600000X0.450000*%
%TD*%
%TA.AperFunction,SMDPad,CuDef*%
%ADD32R,1.000000X1.500000*%
%TD*%
%TA.AperFunction,ComponentPad*%
%ADD33R,2.600000X2.600000*%
%TD*%
%TA.AperFunction,ComponentPad*%
%ADD34C,2.600000*%
%TD*%
%TA.AperFunction,ComponentPad*%
%ADD35R,1.600000X1.600000*%
%TD*%
%TA.AperFunction,ComponentPad*%
%ADD36O,1.600000X1.600000*%
%TD*%
%TA.AperFunction,ComponentPad*%
%ADD37R,1.700000X1.700000*%
%TD*%
%TA.AperFunction,ComponentPad*%
%ADD38O,1.700000X1.700000*%
%TD*%
%TA.AperFunction,SMDPad,CuDef*%
%ADD39R,0.650000X0.400000*%
%TD*%
%TA.AperFunction,ComponentPad*%
%ADD40C,1.440000*%
%TD*%
%TA.AperFunction,SMDPad,CuDef*%
%ADD41R,0.800000X1.500000*%
%TD*%
%TA.AperFunction,SMDPad,CuDef*%
%ADD42R,1.300000X1.400000*%
%TD*%
%TA.AperFunction,SMDPad,CuDef*%
%ADD43R,1.400000X1.900000*%
%TD*%
%TA.AperFunction,SMDPad,CuDef*%
%ADD44R,0.950000X1.000000*%
%TD*%
%TA.AperFunction,ComponentPad*%
%ADD45C,0.800000*%
%TD*%
%TA.AperFunction,ComponentPad*%
%ADD46C,6.400000*%
%TD*%
%TA.AperFunction,SMDPad,CuDef*%
%ADD47R,1.500000X3.400000*%
%TD*%
%TA.AperFunction,SMDPad,CuDef*%
%ADD48R,1.000000X3.500000*%
%TD*%
%TA.AperFunction,ComponentPad*%
%ADD49C,3.000000*%
%TD*%
%TA.AperFunction,ComponentPad*%
%ADD50C,2.500000*%
%TD*%
%TA.AperFunction,SMDPad,CuDef*%
%ADD51C,15.000000*%
%TD*%
%TA.AperFunction,SMDPad,CuDef*%
%ADD52RoundRect,0.250000X0.375000X0.625000X-0.375000X0.625000X-0.375000X-0.625000X0.375000X-0.625000X0*%
%TD*%
%TA.AperFunction,SMDPad,CuDef*%
%ADD53O,2.500000X1.000000*%
%TD*%
%TA.AperFunction,ComponentPad*%
%ADD54C,1.600000*%
%TD*%
%TA.AperFunction,SMDPad,CuDef*%
%ADD55R,1.550000X1.300000*%
%TD*%
%TA.AperFunction,SMDPad,CuDef*%
%ADD56R,2.000000X0.900000*%
%TD*%
%TA.AperFunction,SMDPad,CuDef*%
%ADD57R,0.900000X2.000000*%
%TD*%
%TA.AperFunction,SMDPad,CuDef*%
%ADD58R,5.000000X5.000000*%
%TD*%
%TA.AperFunction,ComponentPad*%
%ADD59C,1.524000*%
%TD*%
%TA.AperFunction,SMDPad,CuDef*%
%ADD60R,0.500000X0.350000*%
%TD*%
%TA.AperFunction,WasherPad*%
%ADD61C,1.100000*%
%TD*%
%TA.AperFunction,WasherPad*%
%ADD62C,1.500000*%
%TD*%
%TA.AperFunction,SMDPad,CuDef*%
%ADD63RotRect,1.350000X1.000000X45.000000*%
%TD*%
%TA.AperFunction,SMDPad,CuDef*%
%ADD64RotRect,2.000000X1.800000X45.000000*%
%TD*%
%TA.AperFunction,SMDPad,CuDef*%
%ADD65RoundRect,0.075000X-0.350000X-0.075000X0.350000X-0.075000X0.350000X0.075000X-0.350000X0.075000X0*%
%TD*%
%TA.AperFunction,SMDPad,CuDef*%
%ADD66RoundRect,0.075000X0.075000X-0.350000X0.075000X0.350000X-0.075000X0.350000X-0.075000X-0.350000X0*%
%TD*%
%TA.AperFunction,SMDPad,CuDef*%
%ADD67RoundRect,0.250000X0.262500X0.450000X-0.262500X0.450000X-0.262500X-0.450000X0.262500X-0.450000X0*%
%TD*%
%TA.AperFunction,SMDPad,CuDef*%
%ADD68RoundRect,0.250000X0.450000X-0.262500X0.450000X0.262500X-0.450000X0.262500X-0.450000X-0.262500X0*%
%TD*%
%TA.AperFunction,ViaPad*%
%ADD69C,1.000000*%
%TD*%
%TA.AperFunction,ViaPad*%
%ADD70C,0.800000*%
%TD*%
%TA.AperFunction,Conductor*%
%ADD71C,0.254000*%
%TD*%
%TA.AperFunction,Conductor*%
%ADD72C,1.270000*%
%TD*%
%TA.AperFunction,Conductor*%
%ADD73C,0.762000*%
%TD*%
%TA.AperFunction,Conductor*%
%ADD74C,0.508000*%
%TD*%
%TA.AperFunction,Conductor*%
%ADD75C,0.304800*%
%TD*%
%TA.AperFunction,Conductor*%
%ADD76C,0.200000*%
%TD*%
%TA.AperFunction,Conductor*%
%ADD77C,2.032000*%
%TD*%
G04 APERTURE END LIST*
D10*
%TO.P,D12,1,K*%
%TO.N,VDD*%
X62400000Y-113800000D03*
%TO.P,D12,2,A*%
%TO.N,Net-(D12-Pad2)*%
X62400000Y-109800000D03*
%TD*%
D11*
%TO.P,Q3,1,G*%
%TO.N,Net-(Q3-Pad1)*%
X66655000Y-107260000D03*
D12*
%TO.P,Q3,2,D*%
%TO.N,Net-(D12-Pad2)*%
X66655000Y-109800000D03*
%TO.P,Q3,3,S*%
%TO.N,GND*%
X66655000Y-112340000D03*
%TD*%
D13*
%TO.P,R14,1*%
%TO.N,Net-(Q3-Pad1)*%
X74600000Y-107262500D03*
%TO.P,R14,2*%
%TO.N,GND*%
X74600000Y-109137500D03*
%TD*%
D14*
%TO.P,C3,1*%
%TO.N,+3V3*%
X120606999Y-58056499D03*
%TO.P,C3,2*%
%TO.N,GND*%
X120606999Y-51831499D03*
%TD*%
D15*
%TO.P,C4,1*%
%TO.N,+3V3*%
X89000000Y-56737500D03*
%TO.P,C4,2*%
%TO.N,GND*%
X89000000Y-54862500D03*
%TD*%
%TO.P,C5,1*%
%TO.N,+3V3*%
X91800000Y-56737500D03*
%TO.P,C5,2*%
%TO.N,GND*%
X91800000Y-54862500D03*
%TD*%
%TO.P,C6,1*%
%TO.N,GND*%
X103600000Y-75537500D03*
%TO.P,C6,2*%
%TO.N,+5V*%
X103600000Y-73662500D03*
%TD*%
%TO.P,C7,1*%
%TO.N,GND*%
X111000000Y-75068750D03*
%TO.P,C7,2*%
%TO.N,+BATT*%
X111000000Y-73193750D03*
%TD*%
D13*
%TO.P,D1,1,K*%
%TO.N,Net-(D1-Pad1)*%
X88800000Y-73062500D03*
%TO.P,D1,2,A*%
%TO.N,VBUS*%
X88800000Y-74937500D03*
%TD*%
%TO.P,D2,1,K*%
%TO.N,Net-(D2-Pad1)*%
X92000000Y-73062500D03*
%TO.P,D2,2,A*%
%TO.N,VBUS*%
X92000000Y-74937500D03*
%TD*%
D16*
%TO.P,D3,1,K*%
%TO.N,Net-(D3-Pad1)*%
X101937500Y-69400000D03*
%TO.P,D3,2,A*%
%TO.N,+5V*%
X100062500Y-69400000D03*
%TD*%
D17*
%TO.P,J1,1,VBUS*%
%TO.N,VBUS*%
X79700000Y-53735000D03*
%TO.P,J1,2,D-*%
%TO.N,D-*%
X80350000Y-53735000D03*
%TO.P,J1,3,D+*%
%TO.N,D+*%
X81000000Y-53735000D03*
%TO.P,J1,4,ID*%
%TO.N,unconnected-(J1-Pad4)*%
X81650000Y-53735000D03*
%TO.P,J1,5,GND*%
%TO.N,GND*%
X82300000Y-53735000D03*
D18*
%TO.P,J1,6,Shield*%
%TO.N,unconnected-(J1-Pad6)*%
X76825000Y-51060000D03*
D19*
X81000000Y-51060000D03*
D20*
X84737500Y-51060000D03*
X77262500Y-51060000D03*
D21*
X78775000Y-54060000D03*
X83225000Y-54060000D03*
D18*
X85175000Y-51060000D03*
%TD*%
D13*
%TO.P,R2,1*%
%TO.N,Net-(R2-Pad1)*%
X88800000Y-67662500D03*
%TO.P,R2,2*%
%TO.N,Net-(D1-Pad1)*%
X88800000Y-69537500D03*
%TD*%
%TO.P,R3,1*%
%TO.N,Net-(R3-Pad1)*%
X92000000Y-67662500D03*
%TO.P,R3,2*%
%TO.N,Net-(D2-Pad1)*%
X92000000Y-69537500D03*
%TD*%
D22*
%TO.P,R4,1*%
%TO.N,Net-(R4-Pad1)*%
X99325000Y-74600000D03*
%TO.P,R4,2*%
%TO.N,Net-(D3-Pad1)*%
X101200000Y-74600000D03*
%TD*%
D16*
%TO.P,R5,1*%
%TO.N,Net-(R5-Pad1)*%
X103437500Y-79200000D03*
%TO.P,R5,2*%
%TO.N,GND*%
X101562500Y-79200000D03*
%TD*%
D23*
%TO.P,U2,1,~{RI}*%
%TO.N,unconnected-(U2-Pad1)*%
X91650000Y-60262500D03*
%TO.P,U2,2,GND*%
%TO.N,GND*%
X91150000Y-60262500D03*
%TO.P,U2,3,D+*%
%TO.N,D+*%
X90650000Y-60262500D03*
%TO.P,U2,4,D-*%
%TO.N,D-*%
X90150000Y-60262500D03*
%TO.P,U2,5,VIO*%
%TO.N,+3V3*%
X89650000Y-60262500D03*
%TO.P,U2,6,VDD*%
X89150000Y-60262500D03*
D24*
%TO.P,U2,7,REGIN*%
X88462500Y-60950000D03*
%TO.P,U2,8,VBUS*%
%TO.N,VBUS*%
X88462500Y-61450000D03*
%TO.P,U2,9,~{RST}*%
%TO.N,unconnected-(U2-Pad9)*%
X88462500Y-61950000D03*
%TO.P,U2,10,NC*%
%TO.N,unconnected-(U2-Pad10)*%
X88462500Y-62450000D03*
%TO.P,U2,11,GPIO.3*%
%TO.N,unconnected-(U2-Pad11)*%
X88462500Y-62950000D03*
%TO.P,U2,12,RS485/GPIO.2*%
%TO.N,unconnected-(U2-Pad12)*%
X88462500Y-63450000D03*
D23*
%TO.P,U2,13,RXT/GPIO.1*%
%TO.N,Net-(R2-Pad1)*%
X89150000Y-64137500D03*
%TO.P,U2,14,TXT/GPIO.0*%
%TO.N,Net-(R3-Pad1)*%
X89650000Y-64137500D03*
%TO.P,U2,15,~{SUSPEND}*%
%TO.N,unconnected-(U2-Pad15)*%
X90150000Y-64137500D03*
%TO.P,U2,16,VPP*%
%TO.N,unconnected-(U2-Pad16)*%
X90650000Y-64137500D03*
%TO.P,U2,17,SUSPEND*%
%TO.N,unconnected-(U2-Pad17)*%
X91150000Y-64137500D03*
%TO.P,U2,18,~{CTS}*%
%TO.N,unconnected-(U2-Pad18)*%
X91650000Y-64137500D03*
D24*
%TO.P,U2,19,~{RTS}*%
%TO.N,RTS*%
X92337500Y-63450000D03*
%TO.P,U2,20,RXD*%
%TO.N,TXD0*%
X92337500Y-62950000D03*
%TO.P,U2,21,TXD*%
%TO.N,RXD0*%
X92337500Y-62450000D03*
%TO.P,U2,22,~{DSR}*%
%TO.N,unconnected-(U2-Pad22)*%
X92337500Y-61950000D03*
%TO.P,U2,23,~{DTR}*%
%TO.N,DTR*%
X92337500Y-61450000D03*
%TO.P,U2,24,~{DCD}*%
%TO.N,unconnected-(U2-Pad24)*%
X92337500Y-60950000D03*
D25*
%TO.P,U2,25,GND*%
%TO.N,GND*%
X90400000Y-62200000D03*
%TD*%
D26*
%TO.P,U3,1,~{CHRG}*%
%TO.N,Net-(R4-Pad1)*%
X108510000Y-75550000D03*
%TO.P,U3,2,GND*%
%TO.N,GND*%
X108510000Y-74600000D03*
%TO.P,U3,3,BAT*%
%TO.N,+BATT*%
X108510000Y-73650000D03*
%TO.P,U3,4,VCC*%
%TO.N,+5V*%
X105890000Y-73650000D03*
%TO.P,U3,5,PROG*%
%TO.N,Net-(R5-Pad1)*%
X105890000Y-75550000D03*
%TD*%
D27*
%TO.P,Q2,1,E*%
%TO.N,GND*%
X89380999Y-138050000D03*
%TO.P,Q2,2,B*%
%TO.N,Net-(Q2-Pad2)*%
X89380999Y-139950000D03*
%TO.P,Q2,3,C*%
%TO.N,Net-(D11-Pad2)*%
X91380999Y-139000000D03*
%TD*%
D22*
%TO.P,R6,1*%
%TO.N,+3V3*%
X164672499Y-57150999D03*
%TO.P,R6,2*%
%TO.N,Net-(R6-Pad2)*%
X166547499Y-57150999D03*
%TD*%
%TO.P,R7,1*%
%TO.N,+3V3*%
X164672499Y-53750999D03*
%TO.P,R7,2*%
%TO.N,Net-(R7-Pad2)*%
X166547499Y-53750999D03*
%TD*%
D28*
%TO.P,SW2,1*%
%TO.N,IO22*%
X168044999Y-60953999D03*
%TO.P,SW2,2*%
%TO.N,IO21*%
X168044999Y-63493999D03*
%TO.P,SW2,3*%
%TO.N,Net-(R7-Pad2)*%
X174774999Y-63493999D03*
%TO.P,SW2,4*%
%TO.N,Net-(R6-Pad2)*%
X174774999Y-60953999D03*
%TD*%
D13*
%TO.P,C13,1*%
%TO.N,Net-(C13-Pad1)*%
X100068750Y-62262500D03*
%TO.P,C13,2*%
%TO.N,GND*%
X100068750Y-64137500D03*
%TD*%
%TO.P,C14,1*%
%TO.N,+3V3*%
X108000000Y-62112500D03*
%TO.P,C14,2*%
%TO.N,GND*%
X108000000Y-63987500D03*
%TD*%
D29*
%TO.P,IC1,1,VIN*%
%TO.N,Net-(C13-Pad1)*%
X103300000Y-62100000D03*
%TO.P,IC1,2,VSS*%
%TO.N,GND*%
X103300000Y-63050000D03*
%TO.P,IC1,3,CE*%
%TO.N,Net-(C13-Pad1)*%
X103300000Y-64000000D03*
%TO.P,IC1,4,NC*%
%TO.N,unconnected-(IC1-Pad4)*%
X105500000Y-64000000D03*
%TO.P,IC1,5,VOUT*%
%TO.N,+3V3*%
X105500000Y-62100000D03*
%TD*%
D30*
%TO.P,Q1,1,G*%
%TO.N,+5V*%
X95250000Y-62200000D03*
%TO.P,Q1,2,S*%
%TO.N,Net-(C13-Pad1)*%
X97150000Y-62200000D03*
%TO.P,Q1,3,D*%
%TO.N,+BATT*%
X96200000Y-60200000D03*
%TD*%
D22*
%TO.P,R10,1*%
%TO.N,GND*%
X95462500Y-69400000D03*
%TO.P,R10,2*%
%TO.N,+5V*%
X97337500Y-69400000D03*
%TD*%
D31*
%TO.P,D4,1,K*%
%TO.N,Net-(C13-Pad1)*%
X97250000Y-65800000D03*
%TO.P,D4,2,A*%
%TO.N,+5V*%
X95150000Y-65800000D03*
%TD*%
D15*
%TO.P,C15,1*%
%TO.N,+3V3*%
X219222999Y-104412499D03*
%TO.P,C15,2*%
%TO.N,GND*%
X219222999Y-102537499D03*
%TD*%
%TO.P,C16,1*%
%TO.N,+3V3*%
X219222999Y-112540499D03*
%TO.P,C16,2*%
%TO.N,GND*%
X219222999Y-110665499D03*
%TD*%
%TO.P,C17,1*%
%TO.N,+3V3*%
X219222999Y-120795499D03*
%TO.P,C17,2*%
%TO.N,GND*%
X219222999Y-118920499D03*
%TD*%
D32*
%TO.P,D5,1,VDD*%
%TO.N,+3V3*%
X221559999Y-104400999D03*
%TO.P,D5,2,DOUT*%
%TO.N,Net-(D5-Pad2)*%
X224759999Y-104400999D03*
%TO.P,D5,3,VSS*%
%TO.N,GND*%
X224759999Y-99500999D03*
%TO.P,D5,4,DIN*%
%TO.N,Net-(D5-Pad4)*%
X221559999Y-99500999D03*
%TD*%
%TO.P,D6,1,VDD*%
%TO.N,+3V3*%
X221559999Y-112528999D03*
%TO.P,D6,2,DOUT*%
%TO.N,Net-(D6-Pad2)*%
X224759999Y-112528999D03*
%TO.P,D6,3,VSS*%
%TO.N,GND*%
X224759999Y-107628999D03*
%TO.P,D6,4,DIN*%
%TO.N,Net-(D5-Pad2)*%
X221559999Y-107628999D03*
%TD*%
%TO.P,D7,1,VDD*%
%TO.N,+3V3*%
X221559999Y-120783999D03*
%TO.P,D7,2,DOUT*%
%TO.N,unconnected-(D7-Pad2)*%
X224759999Y-120783999D03*
%TO.P,D7,3,VSS*%
%TO.N,GND*%
X224759999Y-115883999D03*
%TO.P,D7,4,DIN*%
%TO.N,Net-(D6-Pad2)*%
X221559999Y-115883999D03*
%TD*%
D16*
%TO.P,D10,1,K*%
%TO.N,Net-(D10-Pad1)*%
X97414499Y-126444999D03*
%TO.P,D10,2,A*%
%TO.N,Net-(D10-Pad2)*%
X95539499Y-126444999D03*
%TD*%
D33*
%TO.P,J2,1,Pin_1*%
%TO.N,Net-(J2-Pad1)*%
X53423999Y-128222999D03*
D34*
%TO.P,J2,2,Pin_2*%
%TO.N,Net-(J2-Pad2)*%
X53423999Y-133302999D03*
%TO.P,J2,3,Pin_3*%
%TO.N,Net-(J2-Pad3)*%
X53423999Y-138382999D03*
%TD*%
D16*
%TO.P,R12,1*%
%TO.N,+5V*%
X97414499Y-130000999D03*
%TO.P,R12,2*%
%TO.N,Net-(R12-Pad2)*%
X95539499Y-130000999D03*
%TD*%
D22*
%TO.P,R13,1*%
%TO.N,Net-(Q2-Pad2)*%
X89443499Y-134900000D03*
%TO.P,R13,2*%
%TO.N,Net-(R13-Pad2)*%
X91318499Y-134900000D03*
%TD*%
D28*
%TO.P,SW7,1*%
%TO.N,IO14*%
X107358000Y-137200000D03*
%TO.P,SW7,2*%
%TO.N,Net-(D10-Pad1)*%
X100628000Y-137200000D03*
%TD*%
D35*
%TO.P,U6,1*%
%TO.N,Net-(R12-Pad2)*%
X92031999Y-129619999D03*
D36*
%TO.P,U6,2*%
%TO.N,Net-(D10-Pad2)*%
X92031999Y-127079999D03*
%TO.P,U6,3*%
%TO.N,Net-(R13-Pad2)*%
X84411999Y-127079999D03*
%TO.P,U6,4*%
%TO.N,+5V*%
X84411999Y-129619999D03*
%TD*%
D22*
%TO.P,R15,1*%
%TO.N,Net-(J5-Pad3)*%
X53112500Y-82880000D03*
%TO.P,R15,2*%
%TO.N,Net-(R15-Pad2)*%
X54987500Y-82880000D03*
%TD*%
D16*
%TO.P,R16,1*%
%TO.N,Net-(R15-Pad2)*%
X54987500Y-86563000D03*
%TO.P,R16,2*%
%TO.N,GND*%
X53112500Y-86563000D03*
%TD*%
D37*
%TO.P,J5,1,Pin_1*%
%TO.N,+5V*%
X50113000Y-78943000D03*
D38*
%TO.P,J5,2,Pin_2*%
%TO.N,Net-(J5-Pad2)*%
X50113000Y-81483000D03*
%TO.P,J5,3,Pin_3*%
%TO.N,Net-(J5-Pad3)*%
X50113000Y-84023000D03*
%TO.P,J5,4,Pin_4*%
%TO.N,GND*%
X50113000Y-86563000D03*
%TD*%
D39*
%TO.P,Q6,1,E1*%
%TO.N,DTR*%
X106450000Y-68750000D03*
%TO.P,Q6,2,B1*%
%TO.N,RTS*%
X106450000Y-69400000D03*
%TO.P,Q6,3,C1*%
%TO.N,EN*%
X106450000Y-70050000D03*
%TO.P,Q6,4,E1*%
%TO.N,RTS*%
X108350000Y-70050000D03*
%TO.P,Q6,5,B1*%
%TO.N,DTR*%
X108350000Y-69400000D03*
%TO.P,Q6,6,C1*%
%TO.N,IO0*%
X108350000Y-68750000D03*
%TD*%
%TO.P,Q7,1,E1*%
%TO.N,VBUS*%
X108150000Y-78450000D03*
%TO.P,Q7,2,B1*%
%TO.N,Net-(Q7-Pad2)*%
X108150000Y-79100000D03*
%TO.P,Q7,3,C2*%
%TO.N,Net-(Q7-Pad3)*%
X108150000Y-79750000D03*
%TO.P,Q7,4,E2*%
%TO.N,+5V*%
X110050000Y-79750000D03*
%TO.P,Q7,5,B2*%
%TO.N,Net-(Q7-Pad2)*%
X110050000Y-79100000D03*
%TO.P,Q7,6,C1*%
X110050000Y-78450000D03*
%TD*%
D30*
%TO.P,Q8,1,G*%
%TO.N,Net-(Q7-Pad3)*%
X95450000Y-75600000D03*
%TO.P,Q8,2,S*%
%TO.N,+5V*%
X97350000Y-75600000D03*
%TO.P,Q8,3,D*%
%TO.N,VBUS*%
X96400000Y-73600000D03*
%TD*%
D22*
%TO.P,R28,1*%
%TO.N,GND*%
X91725000Y-79200000D03*
%TO.P,R28,2*%
%TO.N,Net-(Q7-Pad3)*%
X93600000Y-79200000D03*
%TD*%
%TO.P,R29,1*%
%TO.N,GND*%
X97325000Y-79200000D03*
%TO.P,R29,2*%
%TO.N,Net-(Q7-Pad2)*%
X99200000Y-79200000D03*
%TD*%
D16*
%TO.P,R21,1*%
%TO.N,+3V3*%
X104337500Y-86000000D03*
%TO.P,R21,2*%
%TO.N,Net-(R21-Pad2)*%
X102462500Y-86000000D03*
%TD*%
D28*
%TO.P,SW15,1*%
%TO.N,IO34*%
X110085000Y-95200000D03*
%TO.P,SW15,2*%
%TO.N,Net-(RV1-Pad2)*%
X103355000Y-95200000D03*
%TD*%
D40*
%TO.P,RV1,1,1*%
%TO.N,GND*%
X97873999Y-89233999D03*
%TO.P,RV1,2,2*%
%TO.N,Net-(RV1-Pad2)*%
X95333999Y-86693999D03*
%TO.P,RV1,3,3*%
%TO.N,Net-(R21-Pad2)*%
X92793999Y-89233999D03*
%TD*%
D41*
%TO.P,SD1,1,NC*%
%TO.N,unconnected-(SD1-Pad1)*%
X208469999Y-55147999D03*
%TO.P,SD1,2,CS*%
%TO.N,CS*%
X209569999Y-55547999D03*
%TO.P,SD1,3,MOSI*%
%TO.N,MOSI*%
X210669999Y-55147999D03*
%TO.P,SD1,4,3V3*%
%TO.N,+3V3*%
X211769999Y-54947999D03*
%TO.P,SD1,5,SCK*%
%TO.N,SCK*%
X212869999Y-55147999D03*
%TO.P,SD1,6,GND*%
%TO.N,GND*%
X213969999Y-54947999D03*
%TO.P,SD1,7,MISO*%
%TO.N,MISO*%
X215069999Y-55147999D03*
%TO.P,SD1,8,NC*%
%TO.N,unconnected-(SD1-Pad8)*%
X216169999Y-55147999D03*
D42*
%TO.P,SD1,S1*%
%TO.N,N/C*%
X215359999Y-66007999D03*
%TO.P,SD1,S2*%
X209659999Y-66007999D03*
D43*
%TO.P,SD1,S3*%
X216959999Y-52857999D03*
%TO.P,SD1,S4*%
X203809999Y-51857999D03*
D44*
%TO.P,SD1,SW*%
X213969999Y-66207999D03*
%TD*%
D28*
%TO.P,SW19,1*%
%TO.N,IO23*%
X188244999Y-53940999D03*
%TO.P,SW19,2*%
%TO.N,IO19*%
X188244999Y-56480999D03*
%TO.P,SW19,3*%
%TO.N,IO18*%
X188244999Y-59020999D03*
%TO.P,SW19,4*%
%TO.N,IO5*%
X188244999Y-61560999D03*
%TO.P,SW19,5*%
%TO.N,CS*%
X194974999Y-61560999D03*
%TO.P,SW19,6*%
%TO.N,SCK*%
X194974999Y-59020999D03*
%TO.P,SW19,7*%
%TO.N,MISO*%
X194974999Y-56480999D03*
%TO.P,SW19,8*%
%TO.N,MOSI*%
X194974999Y-53940999D03*
%TD*%
D45*
%TO.P,H1,1*%
%TO.N,N/C*%
X45376943Y-54101055D03*
D46*
X47073999Y-52403999D03*
D45*
X47073999Y-50003999D03*
X45376943Y-50706943D03*
X47073999Y-54803999D03*
X44673999Y-52403999D03*
X48771055Y-54101055D03*
X48771055Y-50706943D03*
X49473999Y-52403999D03*
%TD*%
%TO.P,H2,1*%
%TO.N,N/C*%
X226360999Y-52403999D03*
X230458055Y-54101055D03*
X227063943Y-54101055D03*
X231160999Y-52403999D03*
X228760999Y-50003999D03*
X228760999Y-54803999D03*
X227063943Y-50706943D03*
D46*
X228760999Y-52403999D03*
D45*
X230458055Y-50706943D03*
%TD*%
%TO.P,H3,1*%
%TO.N,N/C*%
X44546999Y-149431999D03*
X48644055Y-151129055D03*
X45249943Y-151129055D03*
D46*
X46946999Y-149431999D03*
D45*
X46946999Y-151831999D03*
X46946999Y-147031999D03*
X48644055Y-147734943D03*
X49346999Y-149431999D03*
X45249943Y-147734943D03*
%TD*%
%TO.P,H4,1*%
%TO.N,N/C*%
X230458055Y-151129055D03*
X227063943Y-151129055D03*
X226360999Y-149431999D03*
X227063943Y-147734943D03*
X231160999Y-149431999D03*
X230458055Y-147734943D03*
D46*
X228760999Y-149431999D03*
D45*
X228760999Y-147031999D03*
X228760999Y-151831999D03*
%TD*%
D37*
%TO.P,J7,1,Pin_1*%
%TO.N,GND*%
X133179999Y-82248999D03*
D38*
%TO.P,J7,2,Pin_2*%
%TO.N,+5V*%
X135719999Y-82248999D03*
%TO.P,J7,3,Pin_3*%
%TO.N,IO13*%
X138259999Y-82248999D03*
%TO.P,J7,4,Pin_4*%
%TO.N,IO15*%
X140799999Y-82248999D03*
%TO.P,J7,5,Pin_5*%
%TO.N,IO2*%
X143339999Y-82248999D03*
%TD*%
D37*
%TO.P,J8,1,Pin_1*%
%TO.N,GND*%
X133179999Y-85931999D03*
D38*
%TO.P,J8,2,Pin_2*%
%TO.N,+5V*%
X135719999Y-85931999D03*
%TO.P,J8,3,Pin_3*%
%TO.N,IO13*%
X138259999Y-85931999D03*
%TO.P,J8,4,Pin_4*%
%TO.N,IO15*%
X140799999Y-85931999D03*
%TO.P,J8,5,Pin_5*%
%TO.N,IO2*%
X143339999Y-85931999D03*
%TD*%
D47*
%TO.P,JST1,*%
%TO.N,*%
X101550000Y-50356750D03*
X94850000Y-50356750D03*
D48*
%TO.P,JST1,1,Pin_1*%
%TO.N,+BATT*%
X99200000Y-56106750D03*
%TO.P,JST1,2,Pin_2*%
%TO.N,GND*%
X97200000Y-56106750D03*
%TD*%
D49*
%TO.P,K1,1*%
%TO.N,Net-(J2-Pad2)*%
X78366799Y-133277599D03*
D50*
%TO.P,K1,2*%
%TO.N,Net-(D11-Pad2)*%
X76416799Y-139227599D03*
D49*
%TO.P,K1,3*%
%TO.N,Net-(J2-Pad3)*%
X64166799Y-139277599D03*
%TO.P,K1,4*%
%TO.N,Net-(J2-Pad1)*%
X64216799Y-127227599D03*
D50*
%TO.P,K1,5*%
%TO.N,+5V*%
X76416799Y-127227599D03*
%TD*%
D37*
%TO.P,J6,1,Pin_1*%
%TO.N,GND*%
X133743999Y-117551999D03*
D38*
%TO.P,J6,2,Pin_2*%
%TO.N,+3V3*%
X136283999Y-117551999D03*
%TO.P,J6,3,Pin_3*%
%TO.N,Net-(SW10-Pad3)*%
X138823999Y-117551999D03*
%TO.P,J6,4,Pin_4*%
%TO.N,Net-(SW10-Pad4)*%
X141363999Y-117551999D03*
%TD*%
D28*
%TO.P,SW10,1*%
%TO.N,IO21*%
X149554999Y-108407999D03*
%TO.P,SW10,2*%
%TO.N,IO22*%
X149554999Y-105867999D03*
%TO.P,SW10,3*%
%TO.N,Net-(SW10-Pad3)*%
X142824999Y-105867999D03*
%TO.P,SW10,4*%
%TO.N,Net-(SW10-Pad4)*%
X142824999Y-108407999D03*
%TD*%
D16*
%TO.P,C2,1*%
%TO.N,GND*%
X112137500Y-65800000D03*
%TO.P,C2,2*%
%TO.N,EN*%
X110262500Y-65800000D03*
%TD*%
D15*
%TO.P,C1,1*%
%TO.N,+3V3*%
X126702999Y-62104499D03*
%TO.P,C1,2*%
%TO.N,GND*%
X126702999Y-60229499D03*
%TD*%
D51*
%TO.P,TP1,1*%
%TO.N,Net-(SW16-Pad2)*%
X218615999Y-133864999D03*
%TD*%
D10*
%TO.P,D11,1,K*%
%TO.N,+5V*%
X85173999Y-135239999D03*
%TO.P,D11,2,A*%
%TO.N,Net-(D11-Pad2)*%
X85173999Y-139239999D03*
%TD*%
D33*
%TO.P,J4,1,Pin_1*%
%TO.N,VDD*%
X53423999Y-110696999D03*
D34*
%TO.P,J4,2,Pin_2*%
%TO.N,GND*%
X53423999Y-115776999D03*
%TD*%
D28*
%TO.P,SW8,1*%
%TO.N,IO32*%
X73888999Y-99000000D03*
%TO.P,SW8,2*%
%TO.N,Net-(R32-Pad1)*%
X67158999Y-99000000D03*
%TD*%
D33*
%TO.P,J3,1,Pin_1*%
%TO.N,Net-(D12-Pad2)*%
X53423999Y-100409999D03*
D34*
%TO.P,J3,2,Pin_2*%
%TO.N,VDD*%
X53423999Y-105489999D03*
%TD*%
D28*
%TO.P,SW6,1*%
%TO.N,IO13*%
X126822999Y-96723999D03*
%TO.P,SW6,2*%
%TO.N,Net-(R11-Pad1)*%
X133552999Y-96723999D03*
%TD*%
D22*
%TO.P,R11,1*%
%TO.N,Net-(R11-Pad1)*%
X136362499Y-96723999D03*
%TO.P,R11,2*%
%TO.N,Net-(D9-Pad2)*%
X138237499Y-96723999D03*
%TD*%
D52*
%TO.P,D9,1,K*%
%TO.N,GND*%
X143144999Y-96723999D03*
%TO.P,D9,2,A*%
%TO.N,Net-(D9-Pad2)*%
X140344999Y-96723999D03*
%TD*%
D28*
%TO.P,SW11,1*%
%TO.N,IO5*%
X167691999Y-97623999D03*
%TO.P,SW11,2*%
%TO.N,IO17*%
X167691999Y-100163999D03*
%TO.P,SW11,3*%
%TO.N,IO16*%
X167691999Y-102703999D03*
%TO.P,SW11,4*%
%TO.N,Net-(SW11-Pad4)*%
X174421999Y-102703999D03*
%TO.P,SW11,5*%
%TO.N,Net-(SW11-Pad5)*%
X174421999Y-100163999D03*
%TO.P,SW11,6*%
%TO.N,Net-(SW11-Pad6)*%
X174421999Y-97623999D03*
%TD*%
D15*
%TO.P,C20,1*%
%TO.N,+3V3*%
X169847999Y-110926499D03*
%TO.P,C20,2*%
%TO.N,GND*%
X169847999Y-109051499D03*
%TD*%
%TO.P,C19,1*%
%TO.N,+3V3*%
X173403999Y-110926499D03*
%TO.P,C19,2*%
%TO.N,GND*%
X173403999Y-109051499D03*
%TD*%
%TO.P,D13,1,K*%
%TO.N,Net-(D13-Pad1)*%
X173403999Y-114609499D03*
%TO.P,D13,2,A*%
%TO.N,+3V3*%
X173403999Y-112734499D03*
%TD*%
D30*
%TO.P,Q4,1,G*%
%TO.N,Net-(Q4-Pad1)*%
X164706999Y-114544999D03*
%TO.P,Q4,2,D*%
%TO.N,Net-(Q4-Pad2)*%
X166606999Y-114544999D03*
%TO.P,Q4,3,S*%
%TO.N,GND*%
X165656999Y-112544999D03*
%TD*%
D15*
%TO.P,R17,1*%
%TO.N,Net-(Q4-Pad1)*%
X165600000Y-110926499D03*
%TO.P,R17,2*%
%TO.N,GND*%
X165600000Y-109051499D03*
%TD*%
D13*
%TO.P,R18,1*%
%TO.N,Net-(Q4-Pad2)*%
X169847999Y-112734499D03*
%TO.P,R18,2*%
%TO.N,Net-(D13-Pad1)*%
X169847999Y-114609499D03*
%TD*%
D53*
%TO.P,U7,1,RXD*%
%TO.N,Net-(SW11-Pad5)*%
X188571599Y-99259599D03*
%TO.P,U7,2,TXD*%
%TO.N,Net-(SW11-Pad4)*%
X188571599Y-101779599D03*
%TO.P,U7,3,GND*%
%TO.N,GND*%
X188571599Y-104319599D03*
%TO.P,U7,4,VCC*%
%TO.N,+3V3*%
X188571599Y-106859599D03*
%TO.P,U7,5,V_BCKP*%
X188571599Y-109399599D03*
%TO.P,U7,6,1PPS*%
%TO.N,Net-(R31-Pad1)*%
X188571599Y-111939599D03*
%TO.P,U7,7,TIMER*%
%TO.N,unconnected-(U7-Pad7)*%
X204081599Y-111939599D03*
%TO.P,U7,8,AADET_N*%
%TO.N,unconnected-(U7-Pad8)*%
X204081599Y-109399599D03*
%TO.P,U7,9*%
%TO.N,N/C*%
X204081599Y-106859599D03*
%TO.P,U7,10,~{RESET}*%
%TO.N,Net-(SW11-Pad6)*%
X204081599Y-104319599D03*
%TO.P,U7,11,EX_ANT*%
%TO.N,unconnected-(U7-Pad11)*%
X204081599Y-101779599D03*
%TO.P,U7,12,GND*%
%TO.N,GND*%
X204081599Y-99239599D03*
%TD*%
D28*
%TO.P,SW9,1*%
%TO.N,IO33*%
X71004000Y-84404000D03*
%TO.P,SW9,2*%
%TO.N,IO27*%
X71004000Y-81864000D03*
%TO.P,SW9,3*%
%TO.N,Net-(J5-Pad2)*%
X64274000Y-81864000D03*
%TO.P,SW9,4*%
%TO.N,Net-(R15-Pad2)*%
X64274000Y-84404000D03*
%TD*%
D13*
%TO.P,R20,1*%
%TO.N,Net-(R19-Pad2)*%
X96600000Y-113262500D03*
%TO.P,R20,2*%
%TO.N,GND*%
X96600000Y-115137500D03*
%TD*%
D28*
%TO.P,SW14,1*%
%TO.N,IO35*%
X85835000Y-113200000D03*
%TO.P,SW14,2*%
%TO.N,Net-(R19-Pad2)*%
X92565000Y-113200000D03*
%TD*%
D54*
%TO.P,R19,1*%
%TO.N,+3V3*%
X109303999Y-113236999D03*
%TO.P,R19,2*%
%TO.N,Net-(R19-Pad2)*%
X104223999Y-113236999D03*
%TD*%
D55*
%TO.P,SW1,1,1*%
%TO.N,GND*%
X107220000Y-54850000D03*
X115180000Y-54850000D03*
%TO.P,SW1,2,2*%
%TO.N,EN*%
X115180000Y-50350000D03*
X107220000Y-50350000D03*
%TD*%
D28*
%TO.P,SW5,1*%
%TO.N,IO19*%
X219418999Y-93750999D03*
%TO.P,SW5,2*%
%TO.N,Net-(R30-Pad2)*%
X226148999Y-93750999D03*
%TD*%
D56*
%TO.P,U1,1,GND*%
%TO.N,GND*%
X129734999Y-60847999D03*
%TO.P,U1,2,VDD*%
%TO.N,+3V3*%
X129734999Y-62117999D03*
%TO.P,U1,3,EN*%
%TO.N,EN*%
X129734999Y-63387999D03*
%TO.P,U1,4,SENSOR_VP*%
%TO.N,VP*%
X129734999Y-64657999D03*
%TO.P,U1,5,SENSOR_VN*%
%TO.N,VN*%
X129734999Y-65927999D03*
%TO.P,U1,6,IO34*%
%TO.N,IO34*%
X129734999Y-67197999D03*
%TO.P,U1,7,IO35*%
%TO.N,IO35*%
X129734999Y-68467999D03*
%TO.P,U1,8,IO32*%
%TO.N,IO32*%
X129734999Y-69737999D03*
%TO.P,U1,9,IO33*%
%TO.N,IO33*%
X129734999Y-71007999D03*
%TO.P,U1,10,IO25*%
%TO.N,IO25*%
X129734999Y-72277999D03*
%TO.P,U1,11,IO26*%
%TO.N,IO26*%
X129734999Y-73547999D03*
%TO.P,U1,12,IO27*%
%TO.N,IO27*%
X129734999Y-74817999D03*
%TO.P,U1,13,IO14*%
%TO.N,IO14*%
X129734999Y-76087999D03*
%TO.P,U1,14,IO12*%
%TO.N,IO12*%
X129734999Y-77357999D03*
D57*
%TO.P,U1,15,GND*%
%TO.N,GND*%
X132519999Y-78357999D03*
%TO.P,U1,16,IO13*%
%TO.N,IO13*%
X133789999Y-78357999D03*
%TO.P,U1,17,SHD/SD2*%
%TO.N,unconnected-(U1-Pad17)*%
X135059999Y-78357999D03*
%TO.P,U1,18,SWP/SD3*%
%TO.N,unconnected-(U1-Pad18)*%
X136329999Y-78357999D03*
%TO.P,U1,19,SCS/CMD*%
%TO.N,unconnected-(U1-Pad19)*%
X137599999Y-78357999D03*
%TO.P,U1,20,SCK/CLK*%
%TO.N,unconnected-(U1-Pad20)*%
X138869999Y-78357999D03*
%TO.P,U1,21,SDO/SD0*%
%TO.N,unconnected-(U1-Pad21)*%
X140139999Y-78357999D03*
%TO.P,U1,22,SDI/SD1*%
%TO.N,unconnected-(U1-Pad22)*%
X141409999Y-78357999D03*
%TO.P,U1,23,IO15*%
%TO.N,IO15*%
X142679999Y-78357999D03*
%TO.P,U1,24,IO2*%
%TO.N,IO2*%
X143949999Y-78357999D03*
D56*
%TO.P,U1,25,IO0*%
%TO.N,IO0*%
X146734999Y-77357999D03*
%TO.P,U1,26,IO4*%
%TO.N,IO4*%
X146734999Y-76087999D03*
%TO.P,U1,27,IO16*%
%TO.N,IO16*%
X146734999Y-74817999D03*
%TO.P,U1,28,IO17*%
%TO.N,IO17*%
X146734999Y-73547999D03*
%TO.P,U1,29,IO5*%
%TO.N,IO5*%
X146734999Y-72277999D03*
%TO.P,U1,30,IO18*%
%TO.N,IO18*%
X146734999Y-71007999D03*
%TO.P,U1,31,IO19*%
%TO.N,IO19*%
X146734999Y-69737999D03*
%TO.P,U1,32,NC*%
%TO.N,unconnected-(U1-Pad32)*%
X146734999Y-68467999D03*
%TO.P,U1,33,IO21*%
%TO.N,IO21*%
X146734999Y-67197999D03*
%TO.P,U1,34,RXD0/IO3*%
%TO.N,RXD0*%
X146734999Y-65927999D03*
%TO.P,U1,35,TXD0/IO1*%
%TO.N,TXD0*%
X146734999Y-64657999D03*
%TO.P,U1,36,IO22*%
%TO.N,IO22*%
X146734999Y-63387999D03*
%TO.P,U1,37,IO23*%
%TO.N,IO23*%
X146734999Y-62117999D03*
%TO.P,U1,38,GND*%
%TO.N,GND*%
X146734999Y-60847999D03*
D58*
%TO.P,U1,39,GND*%
X137234999Y-68347999D03*
%TD*%
D16*
%TO.P,R27,1*%
%TO.N,Net-(Q5-Pad1)*%
X61504500Y-65523000D03*
%TO.P,R27,2*%
%TO.N,GND*%
X59629500Y-65523000D03*
%TD*%
D28*
%TO.P,SW18,1*%
%TO.N,IO26*%
X74165000Y-62600000D03*
%TO.P,SW18,2*%
%TO.N,Net-(Q5-Pad1)*%
X67435000Y-62600000D03*
%TD*%
D30*
%TO.P,Q5,1,G*%
%TO.N,Net-(Q5-Pad1)*%
X61517000Y-69222000D03*
%TO.P,Q5,2,D*%
%TO.N,Net-(BZ1-Pad2)*%
X59617000Y-69222000D03*
%TO.P,Q5,3,S*%
%TO.N,GND*%
X60567000Y-71222000D03*
%TD*%
D59*
%TO.P,BZ1,1,-*%
%TO.N,+3V3*%
X48423000Y-66452000D03*
%TO.P,BZ1,2,+*%
%TO.N,Net-(BZ1-Pad2)*%
X53423000Y-66452000D03*
%TD*%
D22*
%TO.P,R1,1*%
%TO.N,EN*%
X110262500Y-62000000D03*
%TO.P,R1,2*%
%TO.N,+3V3*%
X112137500Y-62000000D03*
%TD*%
D37*
%TO.P,J9,1,Pin_1*%
%TO.N,VP*%
X121876999Y-61801999D03*
D38*
%TO.P,J9,2,Pin_2*%
%TO.N,VN*%
X121876999Y-64341999D03*
%TO.P,J9,3,Pin_3*%
%TO.N,IO34*%
X121876999Y-66881999D03*
%TO.P,J9,4,Pin_4*%
%TO.N,IO35*%
X121876999Y-69421999D03*
%TO.P,J9,5,Pin_5*%
%TO.N,IO32*%
X121876999Y-71961999D03*
%TO.P,J9,6,Pin_6*%
%TO.N,IO33*%
X121876999Y-74501999D03*
%TO.P,J9,7,Pin_7*%
%TO.N,IO25*%
X121876999Y-77041999D03*
%TO.P,J9,8,Pin_8*%
%TO.N,IO26*%
X121876999Y-79581999D03*
%TO.P,J9,9,Pin_9*%
%TO.N,IO27*%
X121876999Y-82121999D03*
%TO.P,J9,10,Pin_10*%
%TO.N,IO14*%
X121876999Y-84661999D03*
%TO.P,J9,11,Pin_11*%
%TO.N,IO12*%
X121876999Y-87201999D03*
%TD*%
D37*
%TO.P,J11,1,Pin_1*%
%TO.N,VP*%
X119082999Y-61801999D03*
D38*
%TO.P,J11,2,Pin_2*%
%TO.N,VN*%
X119082999Y-64341999D03*
%TO.P,J11,3,Pin_3*%
%TO.N,IO34*%
X119082999Y-66881999D03*
%TO.P,J11,4,Pin_4*%
%TO.N,IO35*%
X119082999Y-69421999D03*
%TO.P,J11,5,Pin_5*%
%TO.N,IO32*%
X119082999Y-71961999D03*
%TO.P,J11,6,Pin_6*%
%TO.N,IO33*%
X119082999Y-74501999D03*
%TO.P,J11,7,Pin_7*%
%TO.N,IO25*%
X119082999Y-77041999D03*
%TO.P,J11,8,Pin_8*%
%TO.N,IO26*%
X119082999Y-79581999D03*
%TO.P,J11,9,Pin_9*%
%TO.N,IO27*%
X119082999Y-82121999D03*
%TO.P,J11,10,Pin_10*%
%TO.N,IO14*%
X119082999Y-84661999D03*
%TO.P,J11,11,Pin_11*%
%TO.N,IO12*%
X119082999Y-87201999D03*
%TD*%
D37*
%TO.P,J10,1,Pin_1*%
%TO.N,GND*%
X154642999Y-61801999D03*
D38*
%TO.P,J10,2,Pin_2*%
%TO.N,+3V3*%
X154642999Y-64341999D03*
%TO.P,J10,3,Pin_3*%
%TO.N,IO23*%
X154642999Y-66881999D03*
%TO.P,J10,4,Pin_4*%
%TO.N,IO22*%
X154642999Y-69421999D03*
%TO.P,J10,5,Pin_5*%
%TO.N,IO21*%
X154642999Y-71961999D03*
%TO.P,J10,6,Pin_6*%
%TO.N,IO19*%
X154642999Y-74501999D03*
%TO.P,J10,7,Pin_7*%
%TO.N,IO18*%
X154642999Y-77041999D03*
%TO.P,J10,8,Pin_8*%
%TO.N,IO5*%
X154642999Y-79581999D03*
%TO.P,J10,9,Pin_9*%
%TO.N,IO17*%
X154642999Y-82121999D03*
%TO.P,J10,10,Pin_10*%
%TO.N,IO16*%
X154642999Y-84661999D03*
%TO.P,J10,11,Pin_11*%
%TO.N,IO4*%
X154642999Y-87201999D03*
%TD*%
D37*
%TO.P,J12,1,Pin_1*%
%TO.N,GND*%
X157436999Y-61801999D03*
D38*
%TO.P,J12,2,Pin_2*%
%TO.N,+3V3*%
X157436999Y-64341999D03*
%TO.P,J12,3,Pin_3*%
%TO.N,IO23*%
X157436999Y-66881999D03*
%TO.P,J12,4,Pin_4*%
%TO.N,IO22*%
X157436999Y-69421999D03*
%TO.P,J12,5,Pin_5*%
%TO.N,IO21*%
X157436999Y-71961999D03*
%TO.P,J12,6,Pin_6*%
%TO.N,IO19*%
X157436999Y-74501999D03*
%TO.P,J12,7,Pin_7*%
%TO.N,IO18*%
X157436999Y-77041999D03*
%TO.P,J12,8,Pin_8*%
%TO.N,IO5*%
X157436999Y-79581999D03*
%TO.P,J12,9,Pin_9*%
%TO.N,IO17*%
X157436999Y-82121999D03*
%TO.P,J12,10,Pin_10*%
%TO.N,IO16*%
X157436999Y-84661999D03*
%TO.P,J12,11,Pin_11*%
%TO.N,IO4*%
X157436999Y-87201999D03*
%TD*%
D16*
%TO.P,C8,1*%
%TO.N,+3V3*%
X223937500Y-83600000D03*
%TO.P,C8,2*%
%TO.N,GND*%
X222062500Y-83600000D03*
%TD*%
D28*
%TO.P,SW3,1*%
%TO.N,IO22*%
X208844999Y-72680999D03*
%TO.P,SW3,2*%
%TO.N,IO21*%
X208844999Y-75220999D03*
%TO.P,SW3,3*%
%TO.N,Net-(SW3-Pad3)*%
X215574999Y-75220999D03*
%TO.P,SW3,4*%
%TO.N,Net-(SW3-Pad4)*%
X215574999Y-72680999D03*
%TD*%
D22*
%TO.P,R8,1*%
%TO.N,Net-(R8-Pad1)*%
X225462500Y-74950999D03*
%TO.P,R8,2*%
%TO.N,+3V3*%
X227337500Y-74950999D03*
%TD*%
D60*
%TO.P,U4,1,GND*%
%TO.N,GND*%
X221993999Y-80100000D03*
%TO.P,U4,2,CSB*%
%TO.N,+3V3*%
X221993999Y-79450000D03*
%TO.P,U4,3,SDI*%
%TO.N,Net-(SW3-Pad3)*%
X221993999Y-78800000D03*
%TO.P,U4,4,SCK*%
%TO.N,Net-(SW3-Pad4)*%
X221993999Y-78150000D03*
%TO.P,U4,5,SDO*%
%TO.N,Net-(R8-Pad1)*%
X224043999Y-78150000D03*
%TO.P,U4,6,VDDIO*%
%TO.N,+3V3*%
X224043999Y-78800000D03*
%TO.P,U4,7,GND*%
%TO.N,GND*%
X224043999Y-79450000D03*
%TO.P,U4,8,VDD*%
%TO.N,+3V3*%
X224043999Y-80100000D03*
%TD*%
D61*
%TO.P,T1,*%
%TO.N,*%
X197347496Y-135783496D03*
D62*
X200034502Y-138470502D03*
D63*
%TO.P,T1,1,A*%
%TO.N,Net-(R22-Pad1)*%
X195155465Y-138647279D03*
%TO.P,T1,2,CENTER*%
%TO.N,Net-(R23-Pad1)*%
X196163092Y-139654906D03*
%TO.P,T1,3,C*%
%TO.N,Net-(R24-Pad1)*%
X197170719Y-140662533D03*
%TO.P,T1,4,B*%
%TO.N,Net-(R25-Pad1)*%
X200211279Y-133591465D03*
%TO.P,T1,5,COMMON*%
%TO.N,GND*%
X201218906Y-134599092D03*
%TO.P,T1,6,D*%
%TO.N,Net-(R26-Pad2)*%
X202226533Y-135606719D03*
D64*
%TO.P,T1,7,NC*%
%TO.N,unconnected-(T1-Pad7)*%
X195827217Y-134263217D03*
%TO.P,T1,8,NC*%
%TO.N,unconnected-(T1-Pad8)*%
X201554781Y-139990781D03*
%TD*%
D28*
%TO.P,SW16,1*%
%TO.N,IO4*%
X167625999Y-128023999D03*
%TO.P,SW16,2*%
%TO.N,Net-(SW16-Pad2)*%
X174355999Y-128023999D03*
%TD*%
D16*
%TO.P,R22,1*%
%TO.N,Net-(R22-Pad1)*%
X187168499Y-132086999D03*
%TO.P,R22,2*%
%TO.N,Net-(R22-Pad2)*%
X185293499Y-132086999D03*
%TD*%
%TO.P,R23,1*%
%TO.N,Net-(R23-Pad1)*%
X187168499Y-135769999D03*
%TO.P,R23,2*%
%TO.N,Net-(R23-Pad2)*%
X185293499Y-135769999D03*
%TD*%
%TO.P,R24,1*%
%TO.N,Net-(R24-Pad1)*%
X187168499Y-139452999D03*
%TO.P,R24,2*%
%TO.N,Net-(R24-Pad2)*%
X185293499Y-139452999D03*
%TD*%
D28*
%TO.P,SW17,1*%
%TO.N,IO23*%
X167625999Y-136658999D03*
%TO.P,SW17,2*%
%TO.N,IO18*%
X167625999Y-139198999D03*
%TO.P,SW17,3*%
%TO.N,IO2*%
X167625999Y-141738999D03*
%TO.P,SW17,4*%
%TO.N,IO15*%
X167625999Y-144278999D03*
%TO.P,SW17,5*%
%TO.N,IO25*%
X167625999Y-146818999D03*
%TO.P,SW17,6*%
%TO.N,Net-(R26-Pad1)*%
X174355999Y-146818999D03*
%TO.P,SW17,7*%
%TO.N,Net-(R25-Pad2)*%
X174355999Y-144278999D03*
%TO.P,SW17,8*%
%TO.N,Net-(R24-Pad2)*%
X174355999Y-141738999D03*
%TO.P,SW17,9*%
%TO.N,Net-(R23-Pad2)*%
X174355999Y-139198999D03*
%TO.P,SW17,10*%
%TO.N,Net-(R22-Pad2)*%
X174355999Y-136658999D03*
%TD*%
D16*
%TO.P,R25,1*%
%TO.N,Net-(R25-Pad1)*%
X187168499Y-143135999D03*
%TO.P,R25,2*%
%TO.N,Net-(R25-Pad2)*%
X185293499Y-143135999D03*
%TD*%
D22*
%TO.P,R26,1*%
%TO.N,Net-(R26-Pad1)*%
X185293499Y-146818999D03*
%TO.P,R26,2*%
%TO.N,Net-(R26-Pad2)*%
X187168499Y-146818999D03*
%TD*%
%TO.P,C9,1*%
%TO.N,Net-(C9-Pad1)*%
X185817999Y-85550999D03*
%TO.P,C9,2*%
%TO.N,GND*%
X187692999Y-85550999D03*
%TD*%
D15*
%TO.P,C10,1*%
%TO.N,+3V3*%
X191253999Y-80050499D03*
%TO.P,C10,2*%
%TO.N,GND*%
X191253999Y-78175499D03*
%TD*%
%TO.P,C12,1*%
%TO.N,+3V3*%
X194809999Y-80050499D03*
%TO.P,C12,2*%
%TO.N,GND*%
X194809999Y-78175499D03*
%TD*%
D28*
%TO.P,SW4,1*%
%TO.N,IO22*%
X167197999Y-78350999D03*
%TO.P,SW4,2*%
%TO.N,IO21*%
X167197999Y-80890999D03*
%TO.P,SW4,3*%
%TO.N,Net-(SW4-Pad3)*%
X173927999Y-80890999D03*
%TO.P,SW4,4*%
%TO.N,Net-(SW4-Pad4)*%
X173927999Y-78350999D03*
%TD*%
D22*
%TO.P,C11,1*%
%TO.N,Net-(C11-Pad1)*%
X185817999Y-73397999D03*
%TO.P,C11,2*%
%TO.N,GND*%
X187692999Y-73397999D03*
%TD*%
%TO.P,R9,1*%
%TO.N,GND*%
X182388999Y-85550999D03*
%TO.P,R9,2*%
%TO.N,Net-(R9-Pad2)*%
X184263999Y-85550999D03*
%TD*%
D65*
%TO.P,U5,1,CLKIN*%
%TO.N,GND*%
X183090999Y-77608999D03*
%TO.P,U5,2*%
%TO.N,N/C*%
X183090999Y-78108999D03*
%TO.P,U5,3*%
X183090999Y-78608999D03*
%TO.P,U5,4*%
X183090999Y-79108999D03*
%TO.P,U5,5*%
X183090999Y-79608999D03*
%TO.P,U5,6,AUX_SDA*%
%TO.N,unconnected-(U5-Pad6)*%
X183090999Y-80108999D03*
D66*
%TO.P,U5,7,AUX_SCL*%
%TO.N,unconnected-(U5-Pad7)*%
X183790999Y-80808999D03*
%TO.P,U5,8,VDDIO*%
%TO.N,+3V3*%
X184290999Y-80808999D03*
%TO.P,U5,9,AD0*%
%TO.N,Net-(R9-Pad2)*%
X184790999Y-80808999D03*
%TO.P,U5,10,REGOUT*%
%TO.N,Net-(C9-Pad1)*%
X185290999Y-80808999D03*
%TO.P,U5,11,FSYNC*%
%TO.N,GND*%
X185790999Y-80808999D03*
%TO.P,U5,12,INT*%
%TO.N,unconnected-(U5-Pad12)*%
X186290999Y-80808999D03*
D65*
%TO.P,U5,13,VDD*%
%TO.N,+3V3*%
X186990999Y-80108999D03*
%TO.P,U5,14*%
%TO.N,N/C*%
X186990999Y-79608999D03*
%TO.P,U5,15*%
X186990999Y-79108999D03*
%TO.P,U5,16*%
X186990999Y-78608999D03*
%TO.P,U5,17*%
X186990999Y-78108999D03*
%TO.P,U5,18,GND*%
%TO.N,GND*%
X186990999Y-77608999D03*
D66*
%TO.P,U5,19*%
%TO.N,N/C*%
X186290999Y-76908999D03*
%TO.P,U5,20,CPOUT*%
%TO.N,Net-(C11-Pad1)*%
X185790999Y-76908999D03*
%TO.P,U5,21*%
%TO.N,N/C*%
X185290999Y-76908999D03*
%TO.P,U5,22*%
X184790999Y-76908999D03*
%TO.P,U5,23,SCL*%
%TO.N,Net-(SW4-Pad4)*%
X184290999Y-76908999D03*
%TO.P,U5,24,SDA*%
%TO.N,Net-(SW4-Pad3)*%
X183790999Y-76908999D03*
%TD*%
D67*
%TO.P,R31,1*%
%TO.N,Net-(R31-Pad1)*%
X166512500Y-116400000D03*
%TO.P,R31,2*%
%TO.N,Net-(Q4-Pad1)*%
X164687500Y-116400000D03*
%TD*%
%TO.P,R32,1*%
%TO.N,Net-(R32-Pad1)*%
X63912500Y-99000000D03*
%TO.P,R32,2*%
%TO.N,Net-(Q3-Pad1)*%
X62087500Y-99000000D03*
%TD*%
D68*
%TO.P,R30,1*%
%TO.N,Net-(D5-Pad4)*%
X219209999Y-99546499D03*
%TO.P,R30,2*%
%TO.N,Net-(R30-Pad2)*%
X219209999Y-97721499D03*
%TD*%
D69*
%TO.N,+3V3*%
X163400000Y-53800000D03*
X225200000Y-83600000D03*
X217800000Y-104400000D03*
X217800000Y-112600000D03*
X211800000Y-53400000D03*
D70*
X106600000Y-93800000D03*
D69*
X163400000Y-57200000D03*
X116400000Y-57300000D03*
X228700000Y-75000000D03*
X108000000Y-59200000D03*
X115300000Y-57300000D03*
X196400000Y-80100000D03*
X217800000Y-120800000D03*
X93300000Y-56700000D03*
X117500000Y-57300000D03*
X167800000Y-107800000D03*
D70*
%TO.N,GND*%
X137700000Y-69800000D03*
X135700000Y-66800000D03*
X186800000Y-82400000D03*
X136700000Y-69800000D03*
D69*
X186400000Y-104400000D03*
D70*
X58500000Y-65500000D03*
X188800000Y-85600000D03*
X138700000Y-66800000D03*
X135700000Y-68800000D03*
D69*
X82600000Y-55800000D03*
D70*
X202200000Y-133600000D03*
X164600000Y-112200000D03*
D69*
X94200000Y-69400000D03*
X194800000Y-77000000D03*
X224800000Y-101000000D03*
X224800000Y-117400000D03*
X113400000Y-53400000D03*
D70*
X138700000Y-68800000D03*
X92800000Y-60000000D03*
X181600000Y-77600000D03*
X89400000Y-136900000D03*
X136700000Y-66800000D03*
X136700000Y-68800000D03*
X138700000Y-69800000D03*
X138700000Y-67800000D03*
D69*
X85000000Y-55800000D03*
X219200000Y-109400000D03*
X112000000Y-53400000D03*
X97200000Y-51200000D03*
X219200000Y-101200000D03*
X97200000Y-53600000D03*
D70*
X100500000Y-79200000D03*
X136700000Y-67800000D03*
D69*
X224800000Y-109200000D03*
X219200000Y-117600000D03*
D70*
X173400000Y-107800000D03*
X74600000Y-110400000D03*
D69*
X91800000Y-53700000D03*
D70*
X137700000Y-68800000D03*
X144400000Y-96700000D03*
X165581001Y-107800000D03*
X188400000Y-77600000D03*
X96600000Y-116200000D03*
X225200000Y-79500000D03*
D69*
X103600000Y-76700000D03*
D70*
X181200000Y-85600000D03*
D69*
X110600000Y-53400000D03*
D70*
X188800000Y-73400000D03*
D69*
X100100000Y-65300000D03*
X113400000Y-65800000D03*
D70*
X135700000Y-67800000D03*
D69*
X206200000Y-99200000D03*
D70*
X169800000Y-107800000D03*
D69*
X214000000Y-53400000D03*
X89000000Y-53700000D03*
X90500000Y-79200000D03*
X111000000Y-76331250D03*
X108000000Y-65250000D03*
X97200000Y-52400000D03*
D70*
X96200000Y-79200000D03*
D69*
X109200000Y-53400000D03*
D70*
X135700000Y-69800000D03*
D69*
X220800000Y-83600000D03*
D70*
X137700000Y-66800000D03*
D69*
X83800000Y-55800000D03*
D70*
X60600000Y-72400000D03*
D69*
X133200000Y-75800000D03*
X191200000Y-77000000D03*
D70*
X137700000Y-67800000D03*
%TO.N,EN*%
X116200000Y-64800000D03*
X131800000Y-65000000D03*
D69*
%TO.N,+5V*%
X95800000Y-77300000D03*
X103600000Y-70200000D03*
X99200000Y-130000000D03*
D70*
X106800000Y-89200000D03*
D69*
X95200000Y-66700000D03*
X98600000Y-68700000D03*
%TO.N,+BATT*%
X111000000Y-71931250D03*
X98700000Y-59600000D03*
%TO.N,VBUS*%
X94700000Y-72300000D03*
X106516388Y-78248100D03*
D70*
%TO.N,Net-(R4-Pad1)*%
X107300000Y-75500000D03*
X99800000Y-71500000D03*
%TO.N,IO25*%
X129000000Y-87200000D03*
X131600000Y-72300000D03*
%TO.N,IO26*%
X86800000Y-81800000D03*
D69*
%TO.N,IO27*%
X81600000Y-82000000D03*
D70*
%TO.N,IO0*%
X110200000Y-68800000D03*
X132200000Y-70500000D03*
%TO.N,IO19*%
X190300000Y-56500000D03*
X195700000Y-64300000D03*
%TO.N,IO21*%
X145900000Y-108400000D03*
X202400000Y-75300000D03*
X169000000Y-80900000D03*
X144900000Y-67200000D03*
X151400000Y-108400000D03*
%TO.N,RXD0*%
X94000000Y-62200000D03*
X133600000Y-66400000D03*
%TO.N,TXD0*%
X132450000Y-63100000D03*
X94013714Y-63386286D03*
%TO.N,IO22*%
X145600000Y-105700000D03*
X151400000Y-105900000D03*
X202500000Y-72700000D03*
X169100000Y-78400000D03*
X144800000Y-63400000D03*
%TO.N,DTR*%
X94000000Y-60600000D03*
X105000000Y-68000000D03*
%TD*%
D71*
%TO.N,+3V3*%
X224043999Y-78800000D02*
X223518999Y-78800000D01*
X89650000Y-60262500D02*
X89650000Y-59350000D01*
D72*
X157436999Y-64341999D02*
X154642999Y-64341999D01*
D73*
X163449001Y-53750999D02*
X163400000Y-53800000D01*
X173403999Y-112734499D02*
X173403999Y-110926499D01*
D71*
X89150000Y-56887500D02*
X89000000Y-56737500D01*
D73*
X93262500Y-56737500D02*
X93300000Y-56700000D01*
D71*
X196400000Y-82200000D02*
X190900000Y-87700000D01*
D73*
X217804501Y-120795499D02*
X217800000Y-120800000D01*
D71*
X190900000Y-87700000D02*
X180600000Y-87700000D01*
D73*
X191253999Y-80050499D02*
X194809999Y-80050499D01*
D71*
X186990999Y-80108999D02*
X194751499Y-80108999D01*
D73*
X164672499Y-57150999D02*
X163449001Y-57150999D01*
D71*
X89650000Y-59350000D02*
X89150000Y-58850000D01*
D73*
X108000000Y-62112500D02*
X105512500Y-62112500D01*
D71*
X89150000Y-60262500D02*
X89150000Y-58850000D01*
D73*
X105512500Y-62112500D02*
X105500000Y-62100000D01*
X194809999Y-80050499D02*
X196350499Y-80050499D01*
X228650999Y-74950999D02*
X228700000Y-75000000D01*
X219234499Y-104400999D02*
X219222999Y-104412499D01*
D71*
X182900000Y-83000000D02*
X184290999Y-81609001D01*
X224043999Y-80100000D02*
X223518999Y-80100000D01*
D73*
X126716499Y-62117999D02*
X126702999Y-62104499D01*
X217859501Y-112540499D02*
X217800000Y-112600000D01*
D71*
X196350499Y-80050499D02*
X196400000Y-80100000D01*
D73*
X91800000Y-56737500D02*
X93262500Y-56737500D01*
X188571599Y-109399599D02*
X188571599Y-106859599D01*
D71*
X88837500Y-60262500D02*
X88462500Y-60637500D01*
D73*
X108000000Y-62112500D02*
X108000000Y-59200000D01*
X167800000Y-110200000D02*
X168526499Y-110926499D01*
D71*
X179600000Y-83900000D02*
X180500000Y-83000000D01*
D73*
X211769999Y-54947999D02*
X211769999Y-53430001D01*
X219234499Y-112528999D02*
X219222999Y-112540499D01*
D74*
X104337500Y-86000000D02*
X104337500Y-89937500D01*
D71*
X89150000Y-60262500D02*
X88837500Y-60262500D01*
D73*
X167800000Y-107800000D02*
X167800000Y-110200000D01*
D74*
X104337500Y-89937500D02*
X106400000Y-92000000D01*
D73*
X219234499Y-120783999D02*
X219222999Y-120795499D01*
X221559999Y-120783999D02*
X219234499Y-120783999D01*
D71*
X89150000Y-58850000D02*
X89150000Y-56887500D01*
X222868999Y-79450000D02*
X221993999Y-79450000D01*
D74*
X106400000Y-92000000D02*
X106600000Y-92200000D01*
D73*
X211769999Y-53430001D02*
X211800000Y-53400000D01*
D71*
X180500000Y-83000000D02*
X182900000Y-83000000D01*
D73*
X173403999Y-110926499D02*
X180673501Y-110926499D01*
X223937500Y-83600000D02*
X225200000Y-83600000D01*
D71*
X194751499Y-80108999D02*
X194809999Y-80050499D01*
D73*
X173403999Y-110926499D02*
X169847999Y-110926499D01*
X164672499Y-53750999D02*
X163449001Y-53750999D01*
D74*
X106600000Y-92200000D02*
X106600000Y-93800000D01*
D75*
X224043999Y-83493501D02*
X224043999Y-80100000D01*
D73*
X221559999Y-104400999D02*
X219234499Y-104400999D01*
X217812499Y-104412499D02*
X217800000Y-104400000D01*
X168526499Y-110926499D02*
X169847999Y-110926499D01*
X221559999Y-112528999D02*
X219234499Y-112528999D01*
D71*
X184290999Y-81609001D02*
X184290999Y-80808999D01*
X223518999Y-78800000D02*
X222868999Y-79450000D01*
X88462500Y-60637500D02*
X88462500Y-60950000D01*
X196400000Y-80100000D02*
X196400000Y-82200000D01*
D73*
X219222999Y-120795499D02*
X217804501Y-120795499D01*
X227337500Y-74950999D02*
X228650999Y-74950999D01*
D71*
X180600000Y-87700000D02*
X179600000Y-86700000D01*
D73*
X188571599Y-109399599D02*
X182200401Y-109399599D01*
D71*
X223518999Y-80100000D02*
X222868999Y-79450000D01*
D73*
X91800000Y-56737500D02*
X89000000Y-56737500D01*
X129734999Y-62117999D02*
X126716499Y-62117999D01*
X163449001Y-57150999D02*
X163400000Y-57200000D01*
D75*
X223937500Y-83600000D02*
X224043999Y-83493501D01*
D73*
X219222999Y-104412499D02*
X217812499Y-104412499D01*
X219222999Y-112540499D02*
X217859501Y-112540499D01*
D71*
X179600000Y-86700000D02*
X179600000Y-83900000D01*
D73*
X180673501Y-110926499D02*
X182200401Y-109399599D01*
%TO.N,GND*%
X194809999Y-77009999D02*
X194800000Y-77000000D01*
X89000000Y-54862500D02*
X89000000Y-53700000D01*
X132519999Y-76480001D02*
X133200000Y-75800000D01*
X96600000Y-115137500D02*
X96600000Y-116200000D01*
X143144999Y-96723999D02*
X144376001Y-96723999D01*
X191253999Y-77053999D02*
X191200000Y-77000000D01*
X60567000Y-72367000D02*
X60600000Y-72400000D01*
D71*
X186990999Y-77608999D02*
X188391001Y-77608999D01*
D73*
X181249001Y-85550999D02*
X181200000Y-85600000D01*
D74*
X222062500Y-83600000D02*
X220800000Y-83600000D01*
D71*
X185790999Y-80808999D02*
X185790999Y-81390999D01*
D75*
X222062500Y-83600000D02*
X221993999Y-83531499D01*
D73*
X224759999Y-109159999D02*
X224800000Y-109200000D01*
D74*
X213969999Y-54947999D02*
X213969999Y-53430001D01*
X103300000Y-63050000D02*
X102350000Y-63050000D01*
D73*
X224759999Y-115883999D02*
X224759999Y-117359999D01*
D74*
X102350000Y-63050000D02*
X101262500Y-64137500D01*
X101562500Y-79200000D02*
X100500000Y-79200000D01*
D73*
X219222999Y-118920499D02*
X219222999Y-117622999D01*
X95462500Y-69400000D02*
X94200000Y-69400000D01*
X219222999Y-102537499D02*
X219222999Y-101222999D01*
D74*
X89380999Y-138050000D02*
X89380999Y-136919001D01*
D73*
X103600000Y-75537500D02*
X103600000Y-76700000D01*
X59629500Y-65523000D02*
X58523000Y-65523000D01*
X53112500Y-86563000D02*
X50113000Y-86563000D01*
X206160401Y-99239599D02*
X206200000Y-99200000D01*
X224759999Y-100959999D02*
X224800000Y-101000000D01*
D74*
X201218906Y-134599092D02*
X201218906Y-134581094D01*
D73*
X219222999Y-109422999D02*
X219200000Y-109400000D01*
X188571599Y-104319599D02*
X186480401Y-104319599D01*
X187692999Y-85550999D02*
X188750999Y-85550999D01*
X219222999Y-101222999D02*
X219200000Y-101200000D01*
X194809999Y-78175499D02*
X194809999Y-77009999D01*
D71*
X181608999Y-77608999D02*
X181600000Y-77600000D01*
X91600000Y-59200000D02*
X92400000Y-59200000D01*
D73*
X144376001Y-96723999D02*
X144400000Y-96700000D01*
D71*
X183090999Y-77608999D02*
X181608999Y-77608999D01*
D73*
X191253999Y-78175499D02*
X191253999Y-77053999D01*
D74*
X89380999Y-136919001D02*
X89400000Y-136900000D01*
D73*
X58523000Y-65523000D02*
X58500000Y-65500000D01*
X100068750Y-65268750D02*
X100100000Y-65300000D01*
X186480401Y-104319599D02*
X186400000Y-104400000D01*
D71*
X91150000Y-61450000D02*
X90400000Y-62200000D01*
X91600000Y-59200000D02*
X91150000Y-59650000D01*
D73*
X173403999Y-107803999D02*
X173400000Y-107800000D01*
X204081599Y-99239599D02*
X206160401Y-99239599D01*
X188797999Y-73397999D02*
X188800000Y-73400000D01*
D71*
X185790999Y-81390999D02*
X186800000Y-82400000D01*
D73*
X169847999Y-109051499D02*
X169847999Y-107847999D01*
D71*
X224043999Y-79450000D02*
X225150000Y-79450000D01*
D73*
X108000000Y-63987500D02*
X108000000Y-65250000D01*
X60567000Y-71222000D02*
X60567000Y-72367000D01*
D71*
X188391001Y-77608999D02*
X188400000Y-77600000D01*
D74*
X101262500Y-64137500D02*
X100068750Y-64137500D01*
D73*
X219222999Y-110665499D02*
X219222999Y-109422999D01*
D71*
X91150000Y-60262500D02*
X91150000Y-61450000D01*
D73*
X165600000Y-107818999D02*
X165581001Y-107800000D01*
D71*
X91150000Y-59650000D02*
X91150000Y-60262500D01*
D73*
X224759999Y-117359999D02*
X224800000Y-117400000D01*
D71*
X92400000Y-59200000D02*
X92800000Y-59600000D01*
D73*
X224759999Y-107628999D02*
X224759999Y-109159999D01*
X100068750Y-64137500D02*
X100068750Y-65268750D01*
X112137500Y-65800000D02*
X113400000Y-65800000D01*
D74*
X165656999Y-112544999D02*
X164944999Y-112544999D01*
D73*
X182388999Y-85550999D02*
X181249001Y-85550999D01*
X224759999Y-99500999D02*
X224759999Y-100959999D01*
X169847999Y-107847999D02*
X169800000Y-107800000D01*
D75*
X221993999Y-83531499D02*
X221993999Y-80100000D01*
D71*
X225150000Y-79450000D02*
X225200000Y-79500000D01*
D73*
X187692999Y-73397999D02*
X188797999Y-73397999D01*
D71*
X92800000Y-59600000D02*
X92800000Y-60000000D01*
D74*
X213969999Y-53430001D02*
X214000000Y-53400000D01*
D73*
X188750999Y-85550999D02*
X188800000Y-85600000D01*
X165600000Y-109051499D02*
X165600000Y-107818999D01*
D74*
X164944999Y-112544999D02*
X164600000Y-112200000D01*
X97262500Y-79200000D02*
X96200000Y-79200000D01*
X91725000Y-79200000D02*
X90500000Y-79200000D01*
D73*
X91800000Y-54862500D02*
X91800000Y-53700000D01*
D74*
X201218906Y-134581094D02*
X202200000Y-133600000D01*
D73*
X173403999Y-109051499D02*
X173403999Y-107803999D01*
X74600000Y-109137500D02*
X74600000Y-110400000D01*
X219222999Y-117622999D02*
X219200000Y-117600000D01*
X132519999Y-78357999D02*
X132519999Y-76480001D01*
X111000000Y-75068750D02*
X111000000Y-76331250D01*
D75*
%TO.N,EN*%
X106800000Y-71400000D02*
X109800000Y-71400000D01*
X106450000Y-71050000D02*
X106800000Y-71400000D01*
D74*
X104300000Y-51900000D02*
X105850000Y-50350000D01*
X131800000Y-64000000D02*
X131800000Y-65000000D01*
D75*
X106450000Y-70050000D02*
X106450000Y-71050000D01*
D74*
X129734999Y-63387999D02*
X131187999Y-63387999D01*
X110262500Y-62000000D02*
X110262500Y-65800000D01*
X131187999Y-63387999D02*
X131800000Y-64000000D01*
D75*
X111200000Y-70000000D02*
X111200000Y-67600000D01*
X111200000Y-67600000D02*
X113400000Y-67600000D01*
D74*
X108550000Y-57250000D02*
X105350000Y-57250000D01*
X105350000Y-57250000D02*
X104300000Y-56200000D01*
D75*
X111200000Y-67600000D02*
X110262500Y-66662500D01*
D74*
X110262500Y-58962500D02*
X108550000Y-57250000D01*
X105850000Y-50350000D02*
X107220000Y-50350000D01*
X115180000Y-50350000D02*
X107220000Y-50350000D01*
X110262500Y-62000000D02*
X110262500Y-58962500D01*
D75*
X110262500Y-66662500D02*
X110262500Y-65800000D01*
X113400000Y-67600000D02*
X116200000Y-64800000D01*
X109800000Y-71400000D02*
X111200000Y-70000000D01*
D74*
X104300000Y-56200000D02*
X104300000Y-51900000D01*
%TO.N,+5V*%
X98600000Y-68700000D02*
X98600000Y-69400000D01*
D72*
X84411999Y-129619999D02*
X82019999Y-129619999D01*
D73*
X97414499Y-130000999D02*
X99199001Y-130000999D01*
X105890000Y-73650000D02*
X103612500Y-73650000D01*
D74*
X97337500Y-71737500D02*
X97800000Y-72200000D01*
D73*
X103612500Y-73650000D02*
X103600000Y-73662500D01*
X97414499Y-131285501D02*
X96426001Y-132273999D01*
D74*
X95150000Y-62300000D02*
X95250000Y-62200000D01*
X95150000Y-66650000D02*
X95200000Y-66700000D01*
D75*
X106800000Y-83000000D02*
X106800000Y-89200000D01*
D73*
X99199001Y-130000999D02*
X99200000Y-130000000D01*
D72*
X85173999Y-135239999D02*
X85173999Y-132273999D01*
D75*
X110050000Y-79750000D02*
X106800000Y-83000000D01*
D74*
X95150000Y-65800000D02*
X95150000Y-62300000D01*
D73*
X96426001Y-132273999D02*
X85173999Y-132273999D01*
D72*
X82019999Y-129619999D02*
X79627599Y-127227599D01*
D74*
X97337500Y-69400000D02*
X98600000Y-69400000D01*
X95150000Y-65800000D02*
X95150000Y-66650000D01*
X98600000Y-69400000D02*
X100062500Y-69400000D01*
D72*
X103600000Y-73662500D02*
X103600000Y-70200000D01*
X85173999Y-132273999D02*
X85173999Y-130381999D01*
X85173999Y-130381999D02*
X84411999Y-129619999D01*
D74*
X97800000Y-75150000D02*
X97350000Y-75600000D01*
D72*
X135719999Y-82248999D02*
X135719999Y-85931999D01*
D74*
X97350000Y-75600000D02*
X97350000Y-75750000D01*
X97337500Y-69400000D02*
X97337500Y-71737500D01*
X97350000Y-75750000D02*
X95800000Y-77300000D01*
D73*
X97414499Y-130000999D02*
X97414499Y-131285501D01*
D72*
X79627599Y-127227599D02*
X76416799Y-127227599D01*
D74*
X97800000Y-72200000D02*
X97800000Y-75150000D01*
D73*
%TO.N,+BATT*%
X111000000Y-73193750D02*
X111000000Y-71931250D01*
%TO.N,VBUS*%
X94800000Y-73600000D02*
X93462500Y-74937500D01*
D71*
X84450000Y-61450000D02*
X79700000Y-56700000D01*
D73*
X93462500Y-74937500D02*
X92000000Y-74937500D01*
D75*
X108150000Y-78450000D02*
X106718288Y-78450000D01*
X106718288Y-78450000D02*
X106516388Y-78248100D01*
D73*
X96400000Y-73600000D02*
X94800000Y-73600000D01*
D71*
X79700000Y-56700000D02*
X79700000Y-53735000D01*
X88462500Y-61450000D02*
X84450000Y-61450000D01*
D73*
X88800000Y-74937500D02*
X92000000Y-74937500D01*
X94800000Y-73600000D02*
X94800000Y-72400000D01*
X94800000Y-72400000D02*
X94700000Y-72300000D01*
D74*
%TO.N,Net-(D1-Pad1)*%
X88800000Y-69537500D02*
X88800000Y-73062500D01*
%TO.N,Net-(D2-Pad1)*%
X92000000Y-69537500D02*
X92000000Y-73062500D01*
%TO.N,Net-(D3-Pad1)*%
X101200000Y-74600000D02*
X101200000Y-72000000D01*
X101200000Y-72000000D02*
X101937500Y-71262500D01*
X101937500Y-71262500D02*
X101937500Y-69400000D01*
%TO.N,Net-(C13-Pad1)*%
X97150000Y-62200000D02*
X100006250Y-62200000D01*
X97250000Y-62300000D02*
X97150000Y-62200000D01*
D73*
X103300000Y-62100000D02*
X101700000Y-62100000D01*
D74*
X100006250Y-62200000D02*
X100068750Y-62262500D01*
D73*
X100231250Y-62100000D02*
X100068750Y-62262500D01*
D74*
X101600000Y-66400000D02*
X97850000Y-66400000D01*
X97250000Y-65800000D02*
X97250000Y-64050000D01*
X97850000Y-66400000D02*
X97250000Y-65800000D01*
D73*
X101700000Y-62100000D02*
X100231250Y-62100000D01*
D74*
X103300000Y-64000000D02*
X103300000Y-64700000D01*
X97250000Y-64050000D02*
X97250000Y-62300000D01*
X103300000Y-64700000D02*
X101600000Y-66400000D01*
D73*
%TO.N,Net-(D5-Pad4)*%
X219255499Y-99500999D02*
X219209999Y-99546499D01*
D74*
X221559999Y-99500999D02*
X219255499Y-99500999D01*
D76*
%TO.N,D+*%
X90600001Y-59018199D02*
X90600001Y-60212501D01*
X92393200Y-51875000D02*
X95125000Y-54606800D01*
X95125000Y-54606800D02*
X95125000Y-57293200D01*
X86675000Y-53106800D02*
X87906800Y-51875000D01*
X93793200Y-58625000D02*
X90993200Y-58625000D01*
X81000000Y-54747501D02*
X80900000Y-54847501D01*
X87906800Y-51875000D02*
X92393200Y-51875000D01*
X86006800Y-56675000D02*
X86675000Y-56006800D01*
X95125000Y-57293200D02*
X93793200Y-58625000D01*
X86675000Y-56006800D02*
X86675000Y-53106800D01*
X81000000Y-53735000D02*
X81000000Y-54747501D01*
X80900000Y-55681800D02*
X81893200Y-56675000D01*
X81893200Y-56675000D02*
X86006800Y-56675000D01*
X90993200Y-58625000D02*
X90600001Y-59018199D01*
X80900000Y-54847501D02*
X80900000Y-55681800D01*
X90600001Y-60212501D02*
X90650000Y-60262500D01*
%TO.N,D-*%
X88093200Y-52325000D02*
X92206800Y-52325000D01*
X80450000Y-55868200D02*
X81706800Y-57125000D01*
X87125000Y-53293200D02*
X88093200Y-52325000D01*
X81706800Y-57125000D02*
X86193200Y-57125000D01*
X80350000Y-54747501D02*
X80450000Y-54847501D01*
X90150000Y-58831800D02*
X90150000Y-60262500D01*
X94675000Y-57106800D02*
X93606800Y-58175000D01*
X92206800Y-52325000D02*
X94675000Y-54793200D01*
X90806800Y-58175000D02*
X90150000Y-58831800D01*
X94675000Y-54793200D02*
X94675000Y-57106800D01*
X93606800Y-58175000D02*
X90806800Y-58175000D01*
X80350000Y-53735000D02*
X80350000Y-54747501D01*
X86193200Y-57125000D02*
X87125000Y-56193200D01*
X80450000Y-54847501D02*
X80450000Y-55868200D01*
X87125000Y-56193200D02*
X87125000Y-53293200D01*
D71*
%TO.N,Net-(R2-Pad1)*%
X89150000Y-66450000D02*
X88800000Y-66800000D01*
X89150000Y-64137500D02*
X89150000Y-66450000D01*
X88800000Y-66800000D02*
X88800000Y-67662500D01*
%TO.N,Net-(R3-Pad1)*%
X89650000Y-65050000D02*
X90800000Y-66200000D01*
X89650000Y-64137500D02*
X89650000Y-65050000D01*
X92000000Y-66800000D02*
X92000000Y-67662500D01*
X91400000Y-66200000D02*
X92000000Y-66800000D01*
X90800000Y-66200000D02*
X91400000Y-66200000D01*
%TO.N,Net-(R4-Pad1)*%
X99325000Y-71975000D02*
X99800000Y-71500000D01*
X107300000Y-75500000D02*
X108460000Y-75500000D01*
X99325000Y-74600000D02*
X99325000Y-71975000D01*
X108460000Y-75500000D02*
X108510000Y-75550000D01*
D75*
%TO.N,Net-(R5-Pad1)*%
X105890000Y-75550000D02*
X105890000Y-76747500D01*
X105890000Y-76747500D02*
X103437500Y-79200000D01*
D74*
%TO.N,VP*%
X121876999Y-61801999D02*
X123286001Y-61801999D01*
X123286001Y-61801999D02*
X126142001Y-64657999D01*
X119082999Y-61801999D02*
X121876999Y-61801999D01*
X126142001Y-64657999D02*
X129734999Y-64657999D01*
%TO.N,VN*%
X121876999Y-64341999D02*
X123341999Y-64341999D01*
X124927999Y-65927999D02*
X129734999Y-65927999D01*
X123341999Y-64341999D02*
X124927999Y-65927999D01*
X119082999Y-64341999D02*
X121876999Y-64341999D01*
%TO.N,IO34*%
X122192999Y-67197999D02*
X121876999Y-66881999D01*
X112400000Y-70400000D02*
X112400000Y-80000000D01*
X110085000Y-93485000D02*
X110085000Y-95200000D01*
X112400000Y-80000000D02*
X108800000Y-83600000D01*
X108800000Y-92200000D02*
X110085000Y-93485000D01*
X129734999Y-67197999D02*
X122192999Y-67197999D01*
X115918001Y-66881999D02*
X112400000Y-70400000D01*
X108800000Y-83600000D02*
X108800000Y-92200000D01*
X119082999Y-66881999D02*
X115918001Y-66881999D01*
X119082999Y-66881999D02*
X121876999Y-66881999D01*
%TO.N,IO35*%
X122830999Y-68467999D02*
X121876999Y-69421999D01*
X110600000Y-84000000D02*
X113600000Y-81000000D01*
X111200000Y-97400000D02*
X112000000Y-96600000D01*
X112000000Y-96600000D02*
X112000000Y-93200000D01*
X85835000Y-113200000D02*
X85835000Y-104965000D01*
X129734999Y-68467999D02*
X122830999Y-68467999D01*
X117378001Y-69421999D02*
X119082999Y-69421999D01*
X93400000Y-97400000D02*
X111200000Y-97400000D01*
X113600000Y-73200000D02*
X117378001Y-69421999D01*
X110600000Y-91800000D02*
X110600000Y-84000000D01*
X112000000Y-93200000D02*
X110600000Y-91800000D01*
X119082999Y-69421999D02*
X121876999Y-69421999D01*
X85835000Y-104965000D02*
X93400000Y-97400000D01*
X113600000Y-81000000D02*
X113600000Y-73200000D01*
%TO.N,IO32*%
X113400000Y-97800000D02*
X111700000Y-99500000D01*
X80600000Y-115800000D02*
X78700000Y-113900000D01*
X78700000Y-100700000D02*
X77000000Y-99000000D01*
X124100999Y-69737999D02*
X121876999Y-71961999D01*
X88400000Y-106400000D02*
X88400000Y-114300000D01*
X129734999Y-69737999D02*
X124100999Y-69737999D01*
X116938001Y-71961999D02*
X115200000Y-73700000D01*
X86900000Y-115800000D02*
X80600000Y-115800000D01*
X115200000Y-83800000D02*
X113400000Y-85600000D01*
X95300000Y-99500000D02*
X88400000Y-106400000D01*
X78700000Y-113900000D02*
X78700000Y-100700000D01*
X77000000Y-99000000D02*
X73888999Y-99000000D01*
X115200000Y-73700000D02*
X115200000Y-83800000D01*
X88400000Y-114300000D02*
X86900000Y-115800000D01*
X111700000Y-99500000D02*
X95300000Y-99500000D01*
X119082999Y-71961999D02*
X116938001Y-71961999D01*
X113400000Y-85600000D02*
X113400000Y-97800000D01*
X119082999Y-71961999D02*
X121876999Y-71961999D01*
%TO.N,IO33*%
X115200000Y-86000000D02*
X115200000Y-99800000D01*
X79500000Y-117800000D02*
X77100000Y-115400000D01*
X116500000Y-84700000D02*
X115200000Y-86000000D01*
X116500000Y-75200000D02*
X116500000Y-84700000D01*
X112800000Y-102200000D02*
X96100000Y-102200000D01*
X72700000Y-104600000D02*
X71004000Y-102904000D01*
X77100000Y-106300000D02*
X75400000Y-104600000D01*
X117198001Y-74501999D02*
X116500000Y-75200000D01*
X90100000Y-108200000D02*
X90100000Y-115400000D01*
X119082999Y-74501999D02*
X121876999Y-74501999D01*
X77100000Y-115400000D02*
X77100000Y-106300000D01*
X90100000Y-115400000D02*
X87700000Y-117800000D01*
X119082999Y-74501999D02*
X117198001Y-74501999D01*
X87700000Y-117800000D02*
X79500000Y-117800000D01*
X71004000Y-102904000D02*
X71004000Y-84404000D01*
X96100000Y-102200000D02*
X90100000Y-108200000D01*
X129734999Y-71007999D02*
X125370999Y-71007999D01*
X75400000Y-104600000D02*
X72700000Y-104600000D01*
X125370999Y-71007999D02*
X121876999Y-74501999D01*
X115200000Y-99800000D02*
X112800000Y-102200000D01*
%TO.N,IO25*%
X131600000Y-72300000D02*
X129757000Y-72300000D01*
X149018999Y-146818999D02*
X167625999Y-146818999D01*
X129000000Y-87200000D02*
X122500000Y-93700000D01*
X126640999Y-72277999D02*
X121876999Y-77041999D01*
X122500000Y-120300000D02*
X149018999Y-146818999D01*
X122500000Y-93700000D02*
X122500000Y-120300000D01*
X129757000Y-72300000D02*
X129734999Y-72277999D01*
X129734999Y-72277999D02*
X126640999Y-72277999D01*
X121876999Y-77041999D02*
X119082999Y-77041999D01*
%TO.N,IO26*%
X129734999Y-73547999D02*
X127910999Y-73547999D01*
X86800000Y-81800000D02*
X74165000Y-69165000D01*
X74165000Y-69165000D02*
X74165000Y-62600000D01*
X119082999Y-79581999D02*
X121876999Y-79581999D01*
X124329499Y-78870501D02*
X124329499Y-77129499D01*
X121876999Y-79581999D02*
X123618001Y-79581999D01*
X127910999Y-73547999D02*
X124329499Y-77129499D01*
X123618001Y-79581999D02*
X124329499Y-78870501D01*
%TO.N,IO27*%
X128382001Y-74817999D02*
X126400000Y-76800000D01*
X81600000Y-82000000D02*
X81464000Y-81864000D01*
X126400000Y-76800000D02*
X126400000Y-79000000D01*
X121876999Y-82121999D02*
X119082999Y-82121999D01*
X81464000Y-81864000D02*
X71004000Y-81864000D01*
X126400000Y-79000000D02*
X123278001Y-82121999D01*
X129734999Y-74817999D02*
X128382001Y-74817999D01*
X123278001Y-82121999D02*
X121876999Y-82121999D01*
%TO.N,IO14*%
X127600000Y-80800000D02*
X123738001Y-84661999D01*
X119082999Y-84661999D02*
X121876999Y-84661999D01*
X127600000Y-77200000D02*
X127600000Y-80800000D01*
X113600000Y-137200000D02*
X107358000Y-137200000D01*
X117000000Y-86744998D02*
X117000000Y-133800000D01*
X119082999Y-84661999D02*
X117000000Y-86744998D01*
X128712001Y-76087999D02*
X127600000Y-77200000D01*
X117000000Y-133800000D02*
X113600000Y-137200000D01*
X129734999Y-76087999D02*
X128712001Y-76087999D01*
X123738001Y-84661999D02*
X121876999Y-84661999D01*
%TO.N,IO12*%
X124598001Y-87201999D02*
X129734999Y-82065001D01*
X121876999Y-87201999D02*
X119082999Y-87201999D01*
X129734999Y-82065001D02*
X129734999Y-77357999D01*
X121876999Y-87201999D02*
X124598001Y-87201999D01*
%TO.N,IO13*%
X133789999Y-78357999D02*
X133789999Y-79989999D01*
X137600000Y-80400000D02*
X138259999Y-81059999D01*
X138259999Y-81059999D02*
X138259999Y-82248999D01*
X136600000Y-91800000D02*
X129000000Y-91800000D01*
X126822999Y-93977001D02*
X126822999Y-96723999D01*
X129000000Y-91800000D02*
X126822999Y-93977001D01*
X134200000Y-80400000D02*
X137600000Y-80400000D01*
X138259999Y-85931999D02*
X138259999Y-90140001D01*
X138259999Y-82248999D02*
X138259999Y-85931999D01*
X133789999Y-79989999D02*
X134200000Y-80400000D01*
X138259999Y-90140001D02*
X136600000Y-91800000D01*
%TO.N,Net-(D9-Pad2)*%
X140344999Y-96723999D02*
X138237499Y-96723999D01*
%TO.N,Net-(D10-Pad1)*%
X100628000Y-127828000D02*
X99244999Y-126444999D01*
X100628000Y-137200000D02*
X100628000Y-127828000D01*
X99244999Y-126444999D02*
X97414499Y-126444999D01*
%TO.N,Net-(D10-Pad2)*%
X92031999Y-127079999D02*
X94020001Y-127079999D01*
X94655001Y-126444999D02*
X94020001Y-127079999D01*
X95539499Y-126444999D02*
X94655001Y-126444999D01*
%TO.N,Net-(D11-Pad2)*%
X86100000Y-142300000D02*
X85173999Y-141373999D01*
X91380999Y-141719001D02*
X90800000Y-142300000D01*
X90800000Y-142300000D02*
X86100000Y-142300000D01*
X91380999Y-139000000D02*
X91380999Y-141719001D01*
D72*
X85161599Y-139227599D02*
X85173999Y-139239999D01*
X76416799Y-139227599D02*
X85161599Y-139227599D01*
D74*
X85173999Y-141373999D02*
X85173999Y-139239999D01*
%TO.N,Net-(D13-Pad1)*%
X173403999Y-114609499D02*
X169847999Y-114609499D01*
%TO.N,IO15*%
X154400000Y-137200000D02*
X161478999Y-144278999D01*
X161478999Y-144278999D02*
X167625999Y-144278999D01*
X142679999Y-78357999D02*
X142679999Y-80368999D01*
X140799999Y-88799999D02*
X154400000Y-102400000D01*
X140799999Y-82248999D02*
X140799999Y-85931999D01*
X140799999Y-85931999D02*
X140799999Y-88799999D01*
X154400000Y-102400000D02*
X154400000Y-137200000D01*
X142679999Y-80368999D02*
X140799999Y-82248999D01*
%TO.N,IO2*%
X153200000Y-95792000D02*
X143339999Y-85931999D01*
X143949999Y-78357999D02*
X143949999Y-81638999D01*
X143949999Y-81638999D02*
X143339999Y-82248999D01*
X167625999Y-141738999D02*
X162738999Y-141738999D01*
X153200000Y-95800000D02*
X153200000Y-95792000D01*
X156400000Y-99000000D02*
X153200000Y-95800000D01*
X143339999Y-82248999D02*
X143339999Y-85931999D01*
X162738999Y-141738999D02*
X156400000Y-135400000D01*
X156400000Y-135400000D02*
X156400000Y-99000000D01*
%TO.N,IO0*%
X132900000Y-70500000D02*
X138300000Y-75900000D01*
X145457999Y-77357999D02*
X146734999Y-77357999D01*
X132200000Y-70500000D02*
X132900000Y-70500000D01*
D71*
X110150000Y-68750000D02*
X110200000Y-68800000D01*
D74*
X144000000Y-75900000D02*
X145457999Y-77357999D01*
X138300000Y-75900000D02*
X144000000Y-75900000D01*
D71*
X108350000Y-68750000D02*
X110150000Y-68750000D01*
D74*
%TO.N,IO4*%
X157436999Y-87201999D02*
X158400000Y-88165000D01*
X146734999Y-76087999D02*
X147887999Y-76087999D01*
X149000000Y-84200000D02*
X152001999Y-87201999D01*
X154642999Y-87201999D02*
X157436999Y-87201999D01*
X152001999Y-87201999D02*
X154642999Y-87201999D01*
X158400000Y-88165000D02*
X158400000Y-125400000D01*
X161023999Y-128023999D02*
X167625999Y-128023999D01*
X147887999Y-76087999D02*
X149000000Y-77200000D01*
X149000000Y-77200000D02*
X149000000Y-84200000D01*
X158400000Y-125400000D02*
X161023999Y-128023999D01*
%TO.N,IO16*%
X157436999Y-84661999D02*
X159061999Y-84661999D01*
X148017999Y-74817999D02*
X150200000Y-77000000D01*
X154642999Y-84661999D02*
X152461999Y-84661999D01*
X160200000Y-85800000D02*
X160200000Y-100000000D01*
X150200000Y-77000000D02*
X150400000Y-77200000D01*
X162903999Y-102703999D02*
X167691999Y-102703999D01*
X160200000Y-100000000D02*
X162903999Y-102703999D01*
X152461999Y-84661999D02*
X150400000Y-82600000D01*
X159061999Y-84661999D02*
X160200000Y-85800000D01*
X150400000Y-82600000D02*
X150400000Y-77200000D01*
X157436999Y-84661999D02*
X154642999Y-84661999D01*
X146734999Y-74817999D02*
X148017999Y-74817999D01*
%TO.N,IO17*%
X151800000Y-79279000D02*
X154642999Y-82121999D01*
X147947999Y-73547999D02*
X151800000Y-77400000D01*
X154642999Y-82121999D02*
X157436999Y-82121999D01*
X162200000Y-98000000D02*
X164363999Y-100163999D01*
X162200000Y-84200000D02*
X162200000Y-98000000D01*
X160121999Y-82121999D02*
X162200000Y-84200000D01*
X157436999Y-82121999D02*
X160121999Y-82121999D01*
X146734999Y-73547999D02*
X147947999Y-73547999D01*
X151800000Y-77400000D02*
X151800000Y-79279000D01*
X164363999Y-100163999D02*
X167691999Y-100163999D01*
%TO.N,IO5*%
X153000000Y-77939000D02*
X154642999Y-79581999D01*
X186439001Y-61560999D02*
X188244999Y-61560999D01*
X157436999Y-79581999D02*
X160781999Y-79581999D01*
X176900000Y-71100000D02*
X186439001Y-61560999D01*
X157436999Y-79581999D02*
X154642999Y-79581999D01*
X153000000Y-77000000D02*
X153000000Y-77939000D01*
X160781999Y-79581999D02*
X162718001Y-79581999D01*
X164200000Y-83000000D02*
X164200000Y-95800000D01*
X164200000Y-83000000D02*
X162718001Y-81518001D01*
X162718001Y-79581999D02*
X171200000Y-71100000D01*
X171200000Y-71100000D02*
X176900000Y-71100000D01*
X146734999Y-72277999D02*
X148277999Y-72277999D01*
X148277999Y-72277999D02*
X153000000Y-77000000D01*
X166023999Y-97623999D02*
X167691999Y-97623999D01*
X162718001Y-81518001D02*
X162718001Y-79581999D01*
X164200000Y-95800000D02*
X166023999Y-97623999D01*
%TO.N,IO18*%
X188244999Y-59020999D02*
X189620999Y-59020999D01*
X170600000Y-69000000D02*
X177200000Y-69000000D01*
X162000000Y-104600000D02*
X160000000Y-106600000D01*
X163800000Y-124000000D02*
X167000000Y-124000000D01*
X167000000Y-124000000D02*
X170100000Y-127100000D01*
X187500000Y-68900000D02*
X181000000Y-68900000D01*
X181000000Y-68900000D02*
X176900000Y-73000000D01*
X152401000Y-74800000D02*
X154642999Y-77041999D01*
X170500000Y-103300000D02*
X169200000Y-104600000D01*
X148607999Y-71007999D02*
X152400000Y-74800000D01*
X164500000Y-138000000D02*
X165698999Y-139198999D01*
X152400000Y-74800000D02*
X152401000Y-74800000D01*
X189620999Y-59020999D02*
X190300000Y-59700000D01*
X183579001Y-59020999D02*
X188244999Y-59020999D01*
X170100000Y-130000000D02*
X164500000Y-135600000D01*
X157436999Y-77041999D02*
X162558001Y-77041999D01*
X164500000Y-135600000D02*
X164500000Y-138000000D01*
X172700000Y-73000000D02*
X170500000Y-75200000D01*
X177200000Y-69000000D02*
X181200000Y-65000000D01*
X169200000Y-104600000D02*
X162000000Y-104600000D01*
X181200000Y-65000000D02*
X181200000Y-61400000D01*
X190300000Y-59700000D02*
X190300000Y-66100000D01*
X176900000Y-73000000D02*
X172700000Y-73000000D01*
X160000000Y-106600000D02*
X160000000Y-120200000D01*
X154642999Y-77041999D02*
X157436999Y-77041999D01*
X162558001Y-77041999D02*
X170600000Y-69000000D01*
X170500000Y-75200000D02*
X170500000Y-103300000D01*
X165698999Y-139198999D02*
X167625999Y-139198999D01*
X170100000Y-127100000D02*
X170100000Y-130000000D01*
X181200000Y-61400000D02*
X183579001Y-59020999D01*
X190300000Y-66100000D02*
X187500000Y-68900000D01*
X146734999Y-71007999D02*
X148607999Y-71007999D01*
X160000000Y-120200000D02*
X163800000Y-124000000D01*
%TO.N,IO19*%
X199800000Y-68400000D02*
X199800000Y-85200000D01*
X157436999Y-74501999D02*
X154642999Y-74501999D01*
X161698001Y-74501999D02*
X157436999Y-74501999D01*
X188244999Y-56480999D02*
X190280999Y-56480999D01*
X182719001Y-56480999D02*
X179400000Y-59800000D01*
X169300000Y-66900000D02*
X161698001Y-74501999D01*
X176500000Y-66900000D02*
X169300000Y-66900000D01*
X195700000Y-64300000D02*
X199800000Y-68400000D01*
X153901999Y-74501999D02*
X149137999Y-69737999D01*
X188244999Y-56480999D02*
X182719001Y-56480999D01*
X202800000Y-88200000D02*
X211000000Y-88200000D01*
X190280999Y-56480999D02*
X190300000Y-56500000D01*
X179400000Y-59800000D02*
X179400000Y-64000000D01*
X216550999Y-93750999D02*
X211000000Y-88200000D01*
X199800000Y-85200000D02*
X202800000Y-88200000D01*
X154642999Y-74501999D02*
X153901999Y-74501999D01*
X219418999Y-93750999D02*
X216550999Y-93750999D01*
X179400000Y-64000000D02*
X176500000Y-66900000D01*
X149137999Y-69737999D02*
X146734999Y-69737999D01*
%TO.N,IO21*%
X153361999Y-71961999D02*
X148597999Y-67197999D01*
X167197999Y-80890999D02*
X168990999Y-80890999D01*
X154642999Y-71961999D02*
X153361999Y-71961999D01*
X145907999Y-108407999D02*
X145900000Y-108400000D01*
X148597999Y-67197999D02*
X146734999Y-67197999D01*
X202400000Y-75300000D02*
X202479001Y-75220999D01*
X202479001Y-75220999D02*
X208844999Y-75220999D01*
X144900000Y-67200000D02*
X146732998Y-67200000D01*
X146732998Y-67200000D02*
X146734999Y-67197999D01*
X149554999Y-108407999D02*
X145907999Y-108407999D01*
X151400000Y-108400000D02*
X149562998Y-108400000D01*
X154642999Y-71961999D02*
X157436999Y-71961999D01*
X160838001Y-71961999D02*
X157436999Y-71961999D01*
X168044999Y-64755001D02*
X160838001Y-71961999D01*
X168044999Y-63493999D02*
X168044999Y-64755001D01*
X168990999Y-80890999D02*
X169000000Y-80900000D01*
X149562998Y-108400000D02*
X149554999Y-108407999D01*
%TO.N,RXD0*%
X141527999Y-65927999D02*
X140100000Y-64500000D01*
X133600000Y-66400000D02*
X133600000Y-65400000D01*
X133600000Y-65400000D02*
X134500000Y-64500000D01*
D71*
X93050000Y-62450000D02*
X93750000Y-62450000D01*
D74*
X146734999Y-65927999D02*
X141527999Y-65927999D01*
D71*
X93750000Y-62450000D02*
X94000000Y-62200000D01*
X92337500Y-62450000D02*
X93050000Y-62450000D01*
D74*
X140100000Y-64500000D02*
X134500000Y-64500000D01*
D71*
%TO.N,TXD0*%
X93577428Y-62950000D02*
X94013714Y-63386286D01*
D74*
X146734999Y-64657999D02*
X142842001Y-64657999D01*
X132450000Y-63100000D02*
X141284002Y-63100000D01*
D71*
X92337500Y-62950000D02*
X93577428Y-62950000D01*
D74*
X141284002Y-63100000D02*
X142842001Y-64657999D01*
%TO.N,IO22*%
X149800000Y-64800000D02*
X149800000Y-65800000D01*
X146734999Y-63387999D02*
X148387999Y-63387999D01*
X202519001Y-72680999D02*
X202500000Y-72700000D01*
X153421999Y-69421999D02*
X154642999Y-69421999D01*
X144812001Y-63387999D02*
X144800000Y-63400000D01*
X157436999Y-69421999D02*
X154642999Y-69421999D01*
X163800000Y-62800000D02*
X165646001Y-60953999D01*
X208844999Y-72680999D02*
X202519001Y-72680999D01*
X145767999Y-105867999D02*
X145600000Y-105700000D01*
X159978001Y-69421999D02*
X163800000Y-65600000D01*
X151400000Y-105900000D02*
X149587000Y-105900000D01*
X148387999Y-63387999D02*
X149800000Y-64800000D01*
X149800000Y-65800000D02*
X153421999Y-69421999D01*
X149554999Y-105867999D02*
X145767999Y-105867999D01*
X157436999Y-69421999D02*
X159978001Y-69421999D01*
X169100000Y-78400000D02*
X167247000Y-78400000D01*
X165646001Y-60953999D02*
X168044999Y-60953999D01*
X167247000Y-78400000D02*
X167197999Y-78350999D01*
X149587000Y-105900000D02*
X149554999Y-105867999D01*
X146734999Y-63387999D02*
X144812001Y-63387999D01*
X163800000Y-65600000D02*
X163800000Y-62800000D01*
%TO.N,IO23*%
X191592480Y-68592480D02*
X189084960Y-71100000D01*
X181200000Y-71100000D02*
X177500000Y-74800000D01*
X189084960Y-71100000D02*
X181200000Y-71100000D01*
X153481999Y-66881999D02*
X151480500Y-64880500D01*
X163400000Y-106000000D02*
X161800000Y-107600000D01*
X159118001Y-66881999D02*
X161200000Y-64800000D01*
X169941001Y-136658999D02*
X167625999Y-136658999D01*
X190240999Y-53940999D02*
X191592480Y-55292480D01*
X151480500Y-64880500D02*
X151480500Y-63719500D01*
X171800000Y-125219927D02*
X171800000Y-134800000D01*
X191592480Y-55292480D02*
X191592480Y-68592480D01*
X151480500Y-63719500D02*
X149878999Y-62117999D01*
X157436999Y-66881999D02*
X154642999Y-66881999D01*
X161200000Y-64800000D02*
X161200000Y-52400000D01*
X188244999Y-53940999D02*
X190240999Y-53940999D01*
X161800000Y-107600000D02*
X161800000Y-118500000D01*
X171800000Y-134800000D02*
X169941001Y-136658999D01*
X164800000Y-121500000D02*
X168080073Y-121500000D01*
X173700000Y-74800000D02*
X171800000Y-76700000D01*
X170900000Y-106000000D02*
X163400000Y-106000000D01*
X161200000Y-52400000D02*
X163400000Y-50200000D01*
X168080073Y-121500000D02*
X171800000Y-125219927D01*
X171800000Y-76700000D02*
X171800000Y-105100000D01*
X157436999Y-66881999D02*
X159118001Y-66881999D01*
X161800000Y-118500000D02*
X164800000Y-121500000D01*
X177500000Y-74800000D02*
X173700000Y-74800000D01*
X179000000Y-50200000D02*
X182740999Y-53940999D01*
X182740999Y-53940999D02*
X188244999Y-53940999D01*
X171800000Y-105100000D02*
X170900000Y-106000000D01*
X163400000Y-50200000D02*
X179000000Y-50200000D01*
X154642999Y-66881999D02*
X153481999Y-66881999D01*
X149878999Y-62117999D02*
X146734999Y-62117999D01*
D73*
%TO.N,Net-(J5-Pad2)*%
X60364000Y-81864000D02*
X59000000Y-80500000D01*
X50130000Y-81500000D02*
X50113000Y-81483000D01*
X64274000Y-81864000D02*
X60364000Y-81864000D01*
X51000000Y-81500000D02*
X50130000Y-81500000D01*
X52000000Y-80500000D02*
X51000000Y-81500000D01*
X59000000Y-80500000D02*
X52000000Y-80500000D01*
%TO.N,Net-(SW10-Pad3)*%
X138823999Y-113423999D02*
X137000000Y-111600000D01*
X139532001Y-105867999D02*
X142824999Y-105867999D01*
X137000000Y-108400000D02*
X139532001Y-105867999D01*
X137000000Y-111600000D02*
X137000000Y-108400000D01*
X138823999Y-117551999D02*
X138823999Y-113423999D01*
%TO.N,Net-(SW10-Pad4)*%
X142824999Y-108407999D02*
X142824999Y-116090999D01*
X142824999Y-116090999D02*
X141363999Y-117551999D01*
D74*
%TO.N,Net-(Q2-Pad2)*%
X87700000Y-135500000D02*
X88300000Y-134900000D01*
X89380999Y-139950000D02*
X88550000Y-139950000D01*
X88300000Y-134900000D02*
X89443499Y-134900000D01*
X88550000Y-139950000D02*
X87700000Y-139100000D01*
X87700000Y-139100000D02*
X87700000Y-135500000D01*
D71*
%TO.N,RTS*%
X93050000Y-63450000D02*
X93800000Y-64200000D01*
X105200000Y-69400000D02*
X106450000Y-69400000D01*
X94400000Y-67800000D02*
X103600000Y-67800000D01*
X92337500Y-63450000D02*
X93050000Y-63450000D01*
X93800000Y-67200000D02*
X94400000Y-67800000D01*
X107808626Y-70050000D02*
X107158626Y-69400000D01*
X93800000Y-64200000D02*
X93800000Y-67200000D01*
X108350000Y-70050000D02*
X107808626Y-70050000D01*
X107158626Y-69400000D02*
X106450000Y-69400000D01*
X103600000Y-67800000D02*
X105200000Y-69400000D01*
D73*
%TO.N,Net-(Q3-Pad1)*%
X74597500Y-107260000D02*
X66655000Y-107260000D01*
X62087500Y-100587500D02*
X66655000Y-105155000D01*
X74600000Y-107262500D02*
X74597500Y-107260000D01*
X66655000Y-105155000D02*
X66655000Y-107260000D01*
X62087500Y-99000000D02*
X62087500Y-100587500D01*
D71*
%TO.N,DTR*%
X107150000Y-68750000D02*
X107800000Y-69400000D01*
X107800000Y-69400000D02*
X108350000Y-69400000D01*
X105750000Y-68750000D02*
X105000000Y-68000000D01*
X106450000Y-68750000D02*
X105750000Y-68750000D01*
X93150000Y-61450000D02*
X94000000Y-60600000D01*
X106450000Y-68750000D02*
X107150000Y-68750000D01*
X92337500Y-61450000D02*
X93150000Y-61450000D01*
D74*
%TO.N,Net-(Q4-Pad1)*%
X163100000Y-113900000D02*
X163100000Y-111600000D01*
X164687500Y-116400000D02*
X164687500Y-114564498D01*
X164706999Y-114544999D02*
X163744999Y-114544999D01*
X164687500Y-114564498D02*
X164706999Y-114544999D01*
X165600000Y-110926499D02*
X163773501Y-110926499D01*
X163744999Y-114544999D02*
X163100000Y-113900000D01*
X163773501Y-110926499D02*
X163100000Y-111600000D01*
%TO.N,Net-(R6-Pad2)*%
X172550999Y-57150999D02*
X166547499Y-57150999D01*
X174774999Y-59374999D02*
X172550999Y-57150999D01*
X174774999Y-60953999D02*
X174774999Y-59374999D01*
%TO.N,Net-(R7-Pad2)*%
X176906001Y-63493999D02*
X178000000Y-62400000D01*
X178000000Y-56600000D02*
X175150999Y-53750999D01*
X175150999Y-53750999D02*
X166547499Y-53750999D01*
X178000000Y-62400000D02*
X178000000Y-56600000D01*
X174774999Y-63493999D02*
X176906001Y-63493999D01*
D71*
%TO.N,Net-(R8-Pad1)*%
X224750000Y-78150000D02*
X225462500Y-77437500D01*
X224043999Y-78150000D02*
X224750000Y-78150000D01*
X225462500Y-77437500D02*
X225462500Y-74950999D01*
%TO.N,Net-(C9-Pad1)*%
X185290999Y-82290999D02*
X185290999Y-80808999D01*
X185817999Y-82817999D02*
X185290999Y-82290999D01*
X185817999Y-85550999D02*
X185817999Y-82817999D01*
%TO.N,Net-(C11-Pad1)*%
X185790999Y-73424999D02*
X185817999Y-73397999D01*
X185790999Y-76908999D02*
X185790999Y-73424999D01*
%TO.N,Net-(R9-Pad2)*%
X184263999Y-82936001D02*
X184790999Y-82409001D01*
X184790999Y-82409001D02*
X184790999Y-80808999D01*
X184263999Y-85550999D02*
X184263999Y-82936001D01*
%TO.N,Net-(SW4-Pad3)*%
X183790999Y-76190999D02*
X183000000Y-75400000D01*
X179309001Y-80890999D02*
X173927999Y-80890999D01*
X180200000Y-76800000D02*
X180200000Y-80000000D01*
X181600000Y-75400000D02*
X180200000Y-76800000D01*
X183000000Y-75400000D02*
X181600000Y-75400000D01*
X183790999Y-76908999D02*
X183790999Y-76190999D01*
X180200000Y-80000000D02*
X179309001Y-80890999D01*
%TO.N,Net-(SW4-Pad4)*%
X176649001Y-78350999D02*
X173927999Y-78350999D01*
X183400000Y-74400000D02*
X180600000Y-74400000D01*
X184290999Y-75290999D02*
X183400000Y-74400000D01*
X184290999Y-76908999D02*
X184290999Y-75290999D01*
X180600000Y-74400000D02*
X176649001Y-78350999D01*
D74*
%TO.N,Net-(Q4-Pad2)*%
X168417499Y-112734499D02*
X166606999Y-114544999D01*
X169847999Y-112734499D02*
X168417499Y-112734499D01*
D73*
%TO.N,Net-(Q5-Pad1)*%
X67435000Y-62600000D02*
X63200000Y-62600000D01*
X61517000Y-69222000D02*
X61517000Y-65535500D01*
X63200000Y-62600000D02*
X61504500Y-64295500D01*
X61504500Y-64295500D02*
X61504500Y-65523000D01*
X61517000Y-65535500D02*
X61504500Y-65523000D01*
D75*
%TO.N,Net-(Q7-Pad3)*%
X107550000Y-79750000D02*
X108150000Y-79750000D01*
X95450000Y-76350000D02*
X93600000Y-78200000D01*
X93600000Y-80600000D02*
X95200000Y-82200000D01*
X93600000Y-79200000D02*
X93600000Y-80600000D01*
X95450000Y-75600000D02*
X95450000Y-76350000D01*
X93600000Y-78200000D02*
X93600000Y-79200000D01*
X105100000Y-82200000D02*
X107550000Y-79750000D01*
X95200000Y-82200000D02*
X105100000Y-82200000D01*
D74*
%TO.N,Net-(R11-Pad1)*%
X136362499Y-96723999D02*
X133552999Y-96723999D01*
%TO.N,Net-(R13-Pad2)*%
X96500000Y-140800000D02*
X101400000Y-140800000D01*
X94200000Y-138500000D02*
X96500000Y-140800000D01*
X84411999Y-124988001D02*
X84411999Y-127079999D01*
X92800000Y-134900000D02*
X94200000Y-136300000D01*
X94200000Y-136300000D02*
X94200000Y-138500000D01*
X103100000Y-139100000D02*
X103100000Y-125400000D01*
X85900000Y-123500000D02*
X84411999Y-124988001D01*
X101400000Y-140800000D02*
X103100000Y-139100000D01*
X103100000Y-125400000D02*
X101200000Y-123500000D01*
X91318499Y-134900000D02*
X92800000Y-134900000D01*
X101200000Y-123500000D02*
X85900000Y-123500000D01*
D73*
%TO.N,Net-(D5-Pad2)*%
X224759999Y-104428999D02*
X221559999Y-107628999D01*
X224759999Y-104400999D02*
X224759999Y-104428999D01*
%TO.N,Net-(R15-Pad2)*%
X54987500Y-82880000D02*
X54987500Y-86563000D01*
X64274000Y-84404000D02*
X59904000Y-84404000D01*
X59904000Y-84404000D02*
X58380000Y-82880000D01*
X58380000Y-82880000D02*
X54987500Y-82880000D01*
%TO.N,Net-(D6-Pad2)*%
X224759999Y-112528999D02*
X224759999Y-112683999D01*
X224759999Y-112683999D02*
X221559999Y-115883999D01*
%TO.N,Net-(R19-Pad2)*%
X104223999Y-113236999D02*
X92601999Y-113236999D01*
X92601999Y-113236999D02*
X92565000Y-113200000D01*
D74*
%TO.N,Net-(R22-Pad2)*%
X177341001Y-136658999D02*
X181913001Y-132086999D01*
X174355999Y-136658999D02*
X177341001Y-136658999D01*
X181913001Y-132086999D02*
X185293499Y-132086999D01*
%TO.N,Net-(R23-Pad2)*%
X174355999Y-139198999D02*
X177801001Y-139198999D01*
X181230001Y-135769999D02*
X185293499Y-135769999D01*
X177801001Y-139198999D02*
X181230001Y-135769999D01*
%TO.N,Net-(R24-Pad2)*%
X180547001Y-139452999D02*
X185293499Y-139452999D01*
X178261001Y-141738999D02*
X180547001Y-139452999D01*
X174355999Y-141738999D02*
X178261001Y-141738999D01*
%TO.N,Net-(R25-Pad2)*%
X178721001Y-144278999D02*
X179864001Y-143135999D01*
X174355999Y-144278999D02*
X178721001Y-144278999D01*
X179864001Y-143135999D02*
X185293499Y-143135999D01*
%TO.N,Net-(R26-Pad1)*%
X174355999Y-146818999D02*
X185293499Y-146818999D01*
%TO.N,Net-(R30-Pad2)*%
X226148999Y-95051001D02*
X225000000Y-96200000D01*
X226148999Y-93750999D02*
X226148999Y-95051001D01*
X225000000Y-96200000D02*
X220731498Y-96200000D01*
X220731498Y-96200000D02*
X219209999Y-97721499D01*
%TO.N,Net-(R31-Pad1)*%
X166512500Y-116400000D02*
X185600000Y-116400000D01*
X188571599Y-113428401D02*
X188571599Y-111939599D01*
X185600000Y-116400000D02*
X188571599Y-113428401D01*
%TO.N,Net-(R12-Pad2)*%
X94200999Y-130000999D02*
X93819999Y-129619999D01*
X95539499Y-130000999D02*
X94200999Y-130000999D01*
X93819999Y-129619999D02*
X92031999Y-129619999D01*
%TO.N,CS*%
X192800000Y-58400000D02*
X193400000Y-57800000D01*
X209600000Y-55928000D02*
X209569999Y-55897999D01*
X209569999Y-55897999D02*
X209569999Y-55547999D01*
X209600000Y-57000000D02*
X209600000Y-55928000D01*
X192800000Y-60800000D02*
X192800000Y-58400000D01*
X194974999Y-61560999D02*
X193560999Y-61560999D01*
X193560999Y-61560999D02*
X192800000Y-60800000D01*
X208800000Y-57800000D02*
X209600000Y-57000000D01*
X193400000Y-57800000D02*
X208800000Y-57800000D01*
D77*
%TO.N,VDD*%
X60300000Y-113800000D02*
X62400000Y-113800000D01*
X57196999Y-110696999D02*
X60300000Y-113800000D01*
X53423999Y-110696999D02*
X57196999Y-110696999D01*
X53423999Y-105489999D02*
X53423999Y-110696999D01*
%TO.N,Net-(D12-Pad2)*%
X66655000Y-109800000D02*
X62400000Y-109800000D01*
X62400000Y-109800000D02*
X62400000Y-107300000D01*
X55509999Y-100409999D02*
X53423999Y-100409999D01*
X62400000Y-107300000D02*
X55509999Y-100409999D01*
D74*
%TO.N,MOSI*%
X209800000Y-52800000D02*
X210669999Y-53669999D01*
X210669999Y-53669999D02*
X210669999Y-55147999D01*
X200340999Y-53940999D02*
X201600000Y-55200000D01*
X201600000Y-55200000D02*
X204800000Y-55200000D01*
X207200000Y-52800000D02*
X209800000Y-52800000D01*
X194974999Y-53940999D02*
X200340999Y-53940999D01*
X204800000Y-55200000D02*
X207200000Y-52800000D01*
%TO.N,SCK*%
X196220999Y-59020999D02*
X197400000Y-60200000D01*
X210600000Y-60200000D02*
X212869999Y-57930001D01*
X212869999Y-57930001D02*
X212869999Y-55147999D01*
X194974999Y-59020999D02*
X196220999Y-59020999D01*
X197400000Y-60200000D02*
X210600000Y-60200000D01*
D73*
%TO.N,Net-(J5-Pad3)*%
X50113000Y-84023000D02*
X51969500Y-84023000D01*
X51969500Y-84023000D02*
X53112500Y-82880000D01*
D74*
%TO.N,MISO*%
X193600000Y-49600000D02*
X212600000Y-49600000D01*
X193180999Y-56480999D02*
X192700000Y-56000000D01*
X212600000Y-49600000D02*
X215069999Y-52069999D01*
X194974999Y-56480999D02*
X193180999Y-56480999D01*
X192700000Y-56000000D02*
X192700000Y-50500000D01*
X192700000Y-50500000D02*
X193600000Y-49600000D01*
X215069999Y-52069999D02*
X215069999Y-55147999D01*
D73*
%TO.N,Net-(R32-Pad1)*%
X63912500Y-99000000D02*
X67158999Y-99000000D01*
D71*
%TO.N,Net-(SW3-Pad3)*%
X217420999Y-75220999D02*
X218600000Y-76400000D01*
X218600000Y-76400000D02*
X218600000Y-78200000D01*
X219200000Y-78800000D02*
X218600000Y-78200000D01*
X221993999Y-78800000D02*
X219200000Y-78800000D01*
X215574999Y-75220999D02*
X217420999Y-75220999D01*
D73*
%TO.N,Net-(R21-Pad2)*%
X98400000Y-83800000D02*
X100600000Y-86000000D01*
X92793999Y-89233999D02*
X92793999Y-85006001D01*
X100600000Y-86000000D02*
X102462500Y-86000000D01*
X94000000Y-83800000D02*
X98400000Y-83800000D01*
X92793999Y-85006001D02*
X94000000Y-83800000D01*
%TO.N,Net-(RV1-Pad2)*%
X95333999Y-86693999D02*
X95333999Y-91133999D01*
X95333999Y-91133999D02*
X99400000Y-95200000D01*
X99400000Y-95200000D02*
X103355000Y-95200000D01*
D74*
%TO.N,Net-(SW16-Pad2)*%
X212774999Y-128023999D02*
X218615999Y-133864999D01*
X174355999Y-128023999D02*
X212774999Y-128023999D01*
%TO.N,Net-(R22-Pad1)*%
X187168499Y-132086999D02*
X188595185Y-132086999D01*
X188595185Y-132086999D02*
X195155465Y-138647279D01*
%TO.N,Net-(R23-Pad1)*%
X187168499Y-135769999D02*
X188769999Y-135769999D01*
X193600000Y-140600000D02*
X195217998Y-140600000D01*
X195217998Y-140600000D02*
X196163092Y-139654906D01*
X188769999Y-135769999D02*
X193600000Y-140600000D01*
%TO.N,Net-(R24-Pad1)*%
X187168499Y-139452999D02*
X189652999Y-139452999D01*
X189652999Y-139452999D02*
X193000000Y-142800000D01*
X193000000Y-142800000D02*
X195033252Y-142800000D01*
X195033252Y-142800000D02*
X197170719Y-140662533D01*
%TO.N,Net-(R25-Pad1)*%
X198200000Y-139200000D02*
X199000000Y-140000000D01*
X200211279Y-133591465D02*
X199400000Y-134402744D01*
X199400000Y-136400000D02*
X198200000Y-137600000D01*
X198200000Y-137600000D02*
X198200000Y-139200000D01*
X198000000Y-145000000D02*
X191600000Y-145000000D01*
X199000000Y-140000000D02*
X199000000Y-144000000D01*
X199000000Y-144000000D02*
X198000000Y-145000000D01*
X199400000Y-134402744D02*
X199400000Y-136400000D01*
X189735999Y-143135999D02*
X187168499Y-143135999D01*
X191600000Y-145000000D02*
X189735999Y-143135999D01*
%TO.N,Net-(R26-Pad2)*%
X205400000Y-141600000D02*
X205400000Y-138780186D01*
X205400000Y-138780186D02*
X202226533Y-135606719D01*
X187168499Y-146818999D02*
X200181001Y-146818999D01*
X200181001Y-146818999D02*
X205400000Y-141600000D01*
D73*
%TO.N,Net-(BZ1-Pad2)*%
X59617000Y-69222000D02*
X56193000Y-69222000D01*
X56193000Y-69222000D02*
X53423000Y-66452000D01*
D75*
%TO.N,Net-(Q7-Pad2)*%
X106200000Y-79100000D02*
X104404320Y-80895680D01*
X99200000Y-80300000D02*
X99200000Y-79200000D01*
X110050000Y-79100000D02*
X108150000Y-79100000D01*
X104404320Y-80895680D02*
X99795680Y-80895680D01*
X99795680Y-80895680D02*
X99200000Y-80300000D01*
X110050000Y-78450000D02*
X110050000Y-79100000D01*
X108150000Y-79100000D02*
X106200000Y-79100000D01*
D74*
%TO.N,Net-(SW11-Pad4)*%
X174421999Y-102703999D02*
X180696001Y-102703999D01*
X180696001Y-102703999D02*
X181620401Y-101779599D01*
X181620401Y-101779599D02*
X188571599Y-101779599D01*
%TO.N,Net-(SW11-Pad5)*%
X188571599Y-99259599D02*
X181340401Y-99259599D01*
X181340401Y-99259599D02*
X180436001Y-100163999D01*
X180436001Y-100163999D02*
X174421999Y-100163999D01*
%TO.N,Net-(SW11-Pad6)*%
X194700000Y-96700000D02*
X181300000Y-96700000D01*
X181300000Y-96700000D02*
X180376001Y-97623999D01*
X204081599Y-104319599D02*
X202319599Y-104319599D01*
X180376001Y-97623999D02*
X174421999Y-97623999D01*
X202319599Y-104319599D02*
X194700000Y-96700000D01*
D71*
%TO.N,Net-(SW3-Pad4)*%
X220600000Y-75000000D02*
X218280999Y-72680999D01*
X218280999Y-72680999D02*
X215574999Y-72680999D01*
X220600000Y-77400000D02*
X220600000Y-75000000D01*
X221350000Y-78150000D02*
X220600000Y-77400000D01*
X221993999Y-78150000D02*
X221350000Y-78150000D01*
%TD*%
%TA.AperFunction,Conductor*%
%TO.N,+BATT*%
G36*
X99942121Y-54120002D02*
G01*
X99988614Y-54173658D01*
X100000000Y-54226000D01*
X100000000Y-59047810D01*
X99979998Y-59115931D01*
X99963095Y-59136905D01*
X98036905Y-61063095D01*
X97974593Y-61097121D01*
X97947810Y-61100000D01*
X95526000Y-61100000D01*
X95457879Y-61079998D01*
X95411386Y-61026342D01*
X95400000Y-60974000D01*
X95400000Y-59752190D01*
X95420002Y-59684069D01*
X95436905Y-59663095D01*
X95963095Y-59136905D01*
X96025407Y-59102879D01*
X96052190Y-59100000D01*
X97500000Y-59100000D01*
X98500000Y-58100000D01*
X98500000Y-54226000D01*
X98520002Y-54157879D01*
X98573658Y-54111386D01*
X98626000Y-54100000D01*
X99874000Y-54100000D01*
X99942121Y-54120002D01*
G37*
%TD.AperFunction*%
%TD*%
%TA.AperFunction,Conductor*%
%TO.N,GND*%
G36*
X98162170Y-50402421D02*
G01*
X98186073Y-50407175D01*
X98221091Y-50414141D01*
X98266510Y-50432954D01*
X98286329Y-50446196D01*
X98305939Y-50459300D01*
X98340700Y-50494061D01*
X98367045Y-50533488D01*
X98385860Y-50578911D01*
X98397579Y-50637830D01*
X98400000Y-50662410D01*
X98400000Y-53484037D01*
X98397579Y-53508618D01*
X98385860Y-53567535D01*
X98367046Y-53612956D01*
X98342394Y-53649850D01*
X98305750Y-53685846D01*
X98240990Y-53727465D01*
X98187334Y-53773958D01*
X98184393Y-53777352D01*
X98164087Y-53800786D01*
X98092645Y-53883234D01*
X98088901Y-53891431D01*
X98088901Y-53891432D01*
X98081813Y-53906953D01*
X98056294Y-53943706D01*
X97800000Y-54200000D01*
X97800000Y-57737590D01*
X97797579Y-57762170D01*
X97785860Y-57821089D01*
X97767045Y-57866512D01*
X97740700Y-57905939D01*
X97705939Y-57940700D01*
X97686329Y-57953804D01*
X97666510Y-57967046D01*
X97621091Y-57985859D01*
X97586073Y-57992825D01*
X97562170Y-57997579D01*
X97537590Y-58000000D01*
X96862410Y-58000000D01*
X96837830Y-57997579D01*
X96813927Y-57992825D01*
X96778909Y-57985859D01*
X96733490Y-57967046D01*
X96713671Y-57953804D01*
X96694061Y-57940700D01*
X96659300Y-57905939D01*
X96632955Y-57866512D01*
X96614140Y-57821089D01*
X96602421Y-57762170D01*
X96600000Y-57737590D01*
X96600000Y-54200000D01*
X96082000Y-53682000D01*
X96066330Y-53662907D01*
X96032954Y-53612956D01*
X96014140Y-53567535D01*
X96002421Y-53508618D01*
X96000000Y-53484037D01*
X96000000Y-50662410D01*
X96002421Y-50637830D01*
X96014140Y-50578911D01*
X96032955Y-50533488D01*
X96059300Y-50494061D01*
X96094061Y-50459300D01*
X96113671Y-50446196D01*
X96133490Y-50432954D01*
X96178909Y-50414141D01*
X96213927Y-50407175D01*
X96237830Y-50402421D01*
X96262410Y-50400000D01*
X98137590Y-50400000D01*
X98162170Y-50402421D01*
G37*
%TD.AperFunction*%
%TD*%
%TA.AperFunction,Conductor*%
%TO.N,+3V3*%
G36*
X121865931Y-56520002D02*
G01*
X121886905Y-56536905D01*
X122063095Y-56713095D01*
X122097121Y-56775407D01*
X122100000Y-56802190D01*
X122100000Y-57600000D01*
X122282983Y-57787798D01*
X125716952Y-61312136D01*
X125716955Y-61312138D01*
X125900000Y-61500000D01*
X126162244Y-61505245D01*
X126162245Y-61505245D01*
X128108750Y-61544175D01*
X128176458Y-61565535D01*
X128209875Y-61601291D01*
X128210463Y-61600840D01*
X128306717Y-61726281D01*
X128432158Y-61822535D01*
X128578237Y-61883043D01*
X128695638Y-61898499D01*
X128699760Y-61898499D01*
X130607820Y-61898498D01*
X130774000Y-61898498D01*
X130842121Y-61918500D01*
X130888614Y-61972156D01*
X130900000Y-62024498D01*
X130900000Y-62211499D01*
X130879998Y-62279620D01*
X130826342Y-62326113D01*
X130774000Y-62337499D01*
X130607432Y-62337499D01*
X128695639Y-62337500D01*
X128691555Y-62338038D01*
X128691549Y-62338038D01*
X128586424Y-62351877D01*
X128586422Y-62351877D01*
X128578237Y-62352955D01*
X128432158Y-62413463D01*
X128425607Y-62418490D01*
X128322235Y-62497810D01*
X128306717Y-62509717D01*
X128301694Y-62516263D01*
X128288468Y-62533499D01*
X128210463Y-62635158D01*
X128209085Y-62638486D01*
X128159264Y-62685992D01*
X128101525Y-62700000D01*
X125575063Y-62700000D01*
X125526845Y-62690409D01*
X125516182Y-62685992D01*
X125418886Y-62645691D01*
X125304195Y-62598184D01*
X125263318Y-62570870D01*
X123919383Y-61226935D01*
X123912240Y-61219168D01*
X123883162Y-61184759D01*
X123878756Y-61179545D01*
X123814497Y-61130416D01*
X123812132Y-61128561D01*
X123754412Y-61082153D01*
X123754411Y-61082152D01*
X123749096Y-61077879D01*
X123742987Y-61074846D01*
X123740266Y-61073106D01*
X123739888Y-61072841D01*
X123739851Y-61072819D01*
X123739443Y-61072594D01*
X123736686Y-61070924D01*
X123731265Y-61066780D01*
X123725083Y-61063897D01*
X123725081Y-61063896D01*
X123657977Y-61032605D01*
X123655203Y-61031270D01*
X123626158Y-61016852D01*
X123593087Y-60993087D01*
X123300000Y-60700000D01*
X123272594Y-60700000D01*
X123251535Y-60649158D01*
X123174036Y-60548159D01*
X123160304Y-60530263D01*
X123155281Y-60523717D01*
X123029840Y-60427463D01*
X122883761Y-60366955D01*
X122875573Y-60365877D01*
X122770447Y-60352037D01*
X122770446Y-60352037D01*
X122766360Y-60351499D01*
X121877107Y-60351499D01*
X120987639Y-60351500D01*
X120983555Y-60352038D01*
X120983549Y-60352038D01*
X120878424Y-60365877D01*
X120878422Y-60365877D01*
X120870237Y-60366955D01*
X120724158Y-60427463D01*
X120598717Y-60523717D01*
X120593694Y-60530263D01*
X120579962Y-60548159D01*
X120522624Y-60590026D01*
X120451753Y-60594248D01*
X120389850Y-60559484D01*
X120380036Y-60548159D01*
X120366304Y-60530263D01*
X120361281Y-60523717D01*
X120235840Y-60427463D01*
X120089761Y-60366955D01*
X120081573Y-60365877D01*
X119976447Y-60352037D01*
X119976446Y-60352037D01*
X119972360Y-60351499D01*
X119083107Y-60351499D01*
X118193639Y-60351500D01*
X118189555Y-60352038D01*
X118189549Y-60352038D01*
X118084424Y-60365877D01*
X118084422Y-60365877D01*
X118076237Y-60366955D01*
X117930158Y-60427463D01*
X117804717Y-60523717D01*
X117799694Y-60530263D01*
X117785962Y-60548159D01*
X117708463Y-60649158D01*
X117705980Y-60647252D01*
X117665321Y-60686005D01*
X117607607Y-60700000D01*
X116500000Y-60700000D01*
X114594500Y-62605500D01*
X114553624Y-62632813D01*
X114198289Y-62779998D01*
X114173155Y-62790409D01*
X114124937Y-62800000D01*
X111802190Y-62800000D01*
X111734069Y-62779998D01*
X111713095Y-62763095D01*
X111536905Y-62586905D01*
X111502879Y-62524593D01*
X111500000Y-62497810D01*
X111500000Y-60075063D01*
X111509591Y-60026845D01*
X111667186Y-59646377D01*
X111694500Y-59605500D01*
X114605500Y-56694500D01*
X114646376Y-56667187D01*
X115026846Y-56509591D01*
X115075063Y-56500000D01*
X121797810Y-56500000D01*
X121865931Y-56520002D01*
G37*
%TD.AperFunction*%
%TD*%
%TA.AperFunction,Conductor*%
%TO.N,GND*%
G36*
X158565931Y-59620002D02*
G01*
X158586905Y-59636905D01*
X158763095Y-59813095D01*
X158797121Y-59875407D01*
X158800000Y-59902190D01*
X158800000Y-62497810D01*
X158779998Y-62565931D01*
X158763095Y-62586905D01*
X158586905Y-62763095D01*
X158524593Y-62797121D01*
X158497810Y-62800000D01*
X153275063Y-62800000D01*
X153226845Y-62790409D01*
X152846376Y-62632813D01*
X152805500Y-62605500D01*
X151000000Y-60800000D01*
X148400000Y-60800000D01*
X148039731Y-61160269D01*
X147977419Y-61194295D01*
X147906407Y-61189156D01*
X147852717Y-61169028D01*
X147852711Y-61169026D01*
X147845315Y-61166254D01*
X147783133Y-61159499D01*
X145686865Y-61159499D01*
X145624683Y-61166254D01*
X145488294Y-61217384D01*
X145371738Y-61304738D01*
X145366357Y-61311918D01*
X145338142Y-61349565D01*
X145281283Y-61392080D01*
X145237316Y-61400000D01*
X131232682Y-61400000D01*
X131164561Y-61379998D01*
X131131856Y-61349565D01*
X131103641Y-61311918D01*
X131098260Y-61304738D01*
X130981704Y-61217384D01*
X130900000Y-61186755D01*
X130900000Y-59642999D01*
X148366792Y-59642999D01*
X148387696Y-59644745D01*
X148407460Y-59648070D01*
X148413516Y-59648144D01*
X148415129Y-59648164D01*
X148415134Y-59648164D01*
X148419999Y-59648223D01*
X148424822Y-59647532D01*
X148428843Y-59647270D01*
X148434935Y-59646703D01*
X148610968Y-59639017D01*
X148818855Y-59629941D01*
X149038090Y-59601078D01*
X149054536Y-59600000D01*
X158497810Y-59600000D01*
X158565931Y-59620002D01*
G37*
%TD.AperFunction*%
%TD*%
%TA.AperFunction,Conductor*%
%TO.N,GND*%
G36*
X119950310Y-48741550D02*
G01*
X119971999Y-48744985D01*
X119981855Y-48743424D01*
X119983156Y-48743218D01*
X120009045Y-48741819D01*
X120214964Y-48751935D01*
X120324956Y-48757338D01*
X120337252Y-48758549D01*
X120680686Y-48809494D01*
X120692808Y-48811904D01*
X120790611Y-48836403D01*
X121029596Y-48896266D01*
X121041428Y-48899855D01*
X121368323Y-49016819D01*
X121379747Y-49021551D01*
X121552542Y-49103277D01*
X121693607Y-49169995D01*
X121704503Y-49175820D01*
X121852640Y-49264609D01*
X122002302Y-49354314D01*
X122012583Y-49361184D01*
X122112240Y-49435095D01*
X122291450Y-49568006D01*
X122300986Y-49575831D01*
X122558257Y-49809008D01*
X122566990Y-49817741D01*
X122800167Y-50075012D01*
X122807992Y-50084548D01*
X122940903Y-50263758D01*
X123014814Y-50363415D01*
X123021684Y-50373696D01*
X123200176Y-50671490D01*
X123206005Y-50682395D01*
X123354447Y-50996251D01*
X123359179Y-51007675D01*
X123476143Y-51334570D01*
X123479732Y-51346402D01*
X123564093Y-51683187D01*
X123566504Y-51695312D01*
X123597295Y-51902879D01*
X123617448Y-52038741D01*
X123618660Y-52051047D01*
X123634179Y-52366953D01*
X123632780Y-52392842D01*
X123631013Y-52403999D01*
X123632564Y-52413792D01*
X123634448Y-52425686D01*
X123635999Y-52445397D01*
X123635999Y-55029601D01*
X123634448Y-55049310D01*
X123631013Y-55070999D01*
X123632025Y-55077388D01*
X123632303Y-55083755D01*
X123646015Y-55397810D01*
X123648749Y-55460433D01*
X123699629Y-55846903D01*
X123783998Y-56227468D01*
X123784826Y-56230093D01*
X123784827Y-56230098D01*
X123867311Y-56491701D01*
X123901215Y-56599232D01*
X124050387Y-56959364D01*
X124230378Y-57305126D01*
X124231850Y-57307437D01*
X124231852Y-57307440D01*
X124286182Y-57392720D01*
X124439820Y-57633884D01*
X124441484Y-57636052D01*
X124441492Y-57636064D01*
X124596760Y-57838412D01*
X124677119Y-57943137D01*
X124678977Y-57945165D01*
X124678984Y-57945173D01*
X124836897Y-58117504D01*
X124940467Y-58230531D01*
X124942487Y-58232382D01*
X125225825Y-58492014D01*
X125225833Y-58492021D01*
X125227861Y-58493879D01*
X125230053Y-58495561D01*
X125534934Y-58729506D01*
X125534946Y-58729514D01*
X125537114Y-58731178D01*
X125539428Y-58732652D01*
X125819522Y-58911091D01*
X125865873Y-58940620D01*
X126211634Y-59120611D01*
X126571766Y-59269783D01*
X126574386Y-59270609D01*
X126574394Y-59270612D01*
X126940900Y-59386171D01*
X126940905Y-59386172D01*
X126943530Y-59387000D01*
X127324095Y-59471369D01*
X127326815Y-59471727D01*
X127326820Y-59471728D01*
X127471145Y-59490729D01*
X127710565Y-59522249D01*
X127713314Y-59522369D01*
X127713325Y-59522370D01*
X128086876Y-59538679D01*
X128093610Y-59538973D01*
X128099999Y-59539985D01*
X128109792Y-59538434D01*
X128109793Y-59538434D01*
X128115739Y-59537492D01*
X128121688Y-59536550D01*
X128141397Y-59534999D01*
X130844926Y-59534999D01*
X130913047Y-59555001D01*
X130959540Y-59608657D01*
X130970922Y-59660023D01*
X130981733Y-61056126D01*
X130982150Y-61110041D01*
X130962676Y-61178315D01*
X130945569Y-61199791D01*
X130908586Y-61237041D01*
X130846397Y-61271290D01*
X130799462Y-61272716D01*
X130771413Y-61268274D01*
X130771409Y-61268274D01*
X130766518Y-61267499D01*
X130608844Y-61267499D01*
X128770583Y-61267500D01*
X128702462Y-61247498D01*
X128681477Y-61230585D01*
X128659483Y-61208586D01*
X128647097Y-61192670D01*
X128648235Y-61191607D01*
X128614818Y-61155851D01*
X128602658Y-61145747D01*
X128505149Y-61064728D01*
X128505148Y-61064727D01*
X128498918Y-61059551D01*
X128491579Y-61056128D01*
X128491577Y-61056126D01*
X128360719Y-60995081D01*
X128356972Y-60993333D01*
X128353036Y-60992091D01*
X128353030Y-60992089D01*
X128293556Y-60973327D01*
X128289264Y-60971973D01*
X128120748Y-60944295D01*
X128116249Y-60944205D01*
X127996479Y-60941810D01*
X126209677Y-60906074D01*
X126141970Y-60884714D01*
X126121956Y-60868033D01*
X123233252Y-57903309D01*
X122735755Y-57392720D01*
X122702542Y-57329971D01*
X122700000Y-57304789D01*
X122700000Y-56802190D01*
X122696563Y-56738063D01*
X122693684Y-56711280D01*
X122680206Y-56633944D01*
X122623725Y-56487851D01*
X122589699Y-56425539D01*
X122498116Y-56303200D01*
X122490056Y-56292433D01*
X122490052Y-56292428D01*
X122487359Y-56288831D01*
X122336905Y-56138377D01*
X122302879Y-56076065D01*
X122300000Y-56049282D01*
X122300000Y-55700000D01*
X106402190Y-55700000D01*
X106334069Y-55679998D01*
X106313095Y-55663095D01*
X106136905Y-55486905D01*
X106102879Y-55424593D01*
X106100000Y-55397810D01*
X106100000Y-52202190D01*
X106120002Y-52134069D01*
X106136905Y-52113095D01*
X106313095Y-51936905D01*
X106375407Y-51902879D01*
X106402190Y-51900000D01*
X116900000Y-51900000D01*
X116900000Y-48865999D01*
X116920002Y-48797878D01*
X116973658Y-48751385D01*
X117026000Y-48739999D01*
X119930601Y-48739999D01*
X119950310Y-48741550D01*
G37*
%TD.AperFunction*%
%TD*%
%TA.AperFunction,Conductor*%
%TO.N,GND*%
G36*
X132773620Y-77220002D02*
G01*
X132820113Y-77273658D01*
X132831499Y-77326000D01*
X132831499Y-79406133D01*
X132838254Y-79468315D01*
X132889384Y-79604704D01*
X132976738Y-79721260D01*
X132983918Y-79726641D01*
X132990268Y-79732991D01*
X132987619Y-79735640D01*
X133019551Y-79778288D01*
X133027499Y-79822330D01*
X133027499Y-79922623D01*
X133026066Y-79941573D01*
X133023875Y-79955972D01*
X133023875Y-79955978D01*
X133022775Y-79963207D01*
X133023368Y-79970499D01*
X133023368Y-79970502D01*
X133027084Y-80016182D01*
X133027499Y-80026397D01*
X133027499Y-80034524D01*
X133030810Y-80062923D01*
X133031237Y-80067243D01*
X133037190Y-80140425D01*
X133039446Y-80147387D01*
X133040642Y-80153375D01*
X133042050Y-80159332D01*
X133042898Y-80166606D01*
X133045396Y-80173488D01*
X133045397Y-80173492D01*
X133067944Y-80235606D01*
X133069354Y-80239710D01*
X133091986Y-80309574D01*
X133095786Y-80315837D01*
X133098324Y-80321379D01*
X133101066Y-80326855D01*
X133103565Y-80333740D01*
X133107580Y-80339864D01*
X133143814Y-80395131D01*
X133146129Y-80398799D01*
X133184226Y-80461580D01*
X133187940Y-80465785D01*
X133187942Y-80465788D01*
X133191666Y-80470004D01*
X133191637Y-80470030D01*
X133194237Y-80472961D01*
X133197042Y-80476316D01*
X133200000Y-80480828D01*
X133200000Y-80600000D01*
X133805500Y-81205500D01*
X133832814Y-81246377D01*
X133990409Y-81626845D01*
X134000000Y-81675063D01*
X134000000Y-86497810D01*
X133979998Y-86565931D01*
X133963095Y-86586905D01*
X133786905Y-86763095D01*
X133724593Y-86797121D01*
X133697810Y-86800000D01*
X132102190Y-86800000D01*
X132034069Y-86779998D01*
X132013095Y-86763095D01*
X131836905Y-86586905D01*
X131802879Y-86524593D01*
X131800000Y-86497810D01*
X131800000Y-77502190D01*
X131820002Y-77434069D01*
X131836905Y-77413095D01*
X132013095Y-77236905D01*
X132075407Y-77202879D01*
X132102190Y-77200000D01*
X132705499Y-77200000D01*
X132773620Y-77220002D01*
G37*
%TD.AperFunction*%
%TD*%
%TA.AperFunction,Conductor*%
%TO.N,GND*%
G36*
X84515931Y-52520002D02*
G01*
X84536905Y-52536905D01*
X85563095Y-53563095D01*
X85597121Y-53625407D01*
X85600000Y-53652190D01*
X85600000Y-56148500D01*
X85579998Y-56216621D01*
X85526342Y-56263114D01*
X85474000Y-56274500D01*
X82126000Y-56274500D01*
X82057879Y-56254498D01*
X82011386Y-56200842D01*
X82000000Y-56148500D01*
X82000000Y-54737259D01*
X82020002Y-54669138D01*
X82036827Y-54648241D01*
X82057365Y-54627667D01*
X82102241Y-54582713D01*
X82111154Y-54562554D01*
X82143675Y-54488992D01*
X82147506Y-54480327D01*
X82150500Y-54454646D01*
X82150500Y-54239249D01*
X82170502Y-54171128D01*
X82224158Y-54124635D01*
X82294432Y-54114531D01*
X82359012Y-54144025D01*
X82397396Y-54203751D01*
X82401763Y-54225641D01*
X82414003Y-54338309D01*
X82471211Y-54508300D01*
X82563587Y-54662040D01*
X82568278Y-54667000D01*
X82568279Y-54667002D01*
X82570299Y-54669138D01*
X82686822Y-54792357D01*
X82692467Y-54796193D01*
X82692469Y-54796195D01*
X82788852Y-54861696D01*
X82835166Y-54893171D01*
X82841496Y-54895703D01*
X82841500Y-54895705D01*
X82995361Y-54957245D01*
X82995366Y-54957246D01*
X83001698Y-54959779D01*
X83008425Y-54960893D01*
X83008430Y-54960894D01*
X83171910Y-54987958D01*
X83171914Y-54987958D01*
X83178648Y-54989073D01*
X83185465Y-54988716D01*
X83185469Y-54988716D01*
X83332669Y-54981001D01*
X83357760Y-54979686D01*
X83364333Y-54977875D01*
X83364336Y-54977875D01*
X83524098Y-54933870D01*
X83524101Y-54933869D01*
X83530679Y-54932057D01*
X83689336Y-54848406D01*
X83694549Y-54844001D01*
X83694553Y-54843998D01*
X83821115Y-54737044D01*
X83826329Y-54732638D01*
X83845639Y-54707382D01*
X83931123Y-54595574D01*
X83931126Y-54595570D01*
X83935267Y-54590153D01*
X84011067Y-54427599D01*
X84050193Y-54252560D01*
X84050500Y-54247069D01*
X84050500Y-53915190D01*
X84035997Y-53781691D01*
X83978789Y-53611700D01*
X83886413Y-53457960D01*
X83879709Y-53450870D01*
X83767869Y-53332604D01*
X83763178Y-53327643D01*
X83676018Y-53268409D01*
X83620477Y-53230664D01*
X83614834Y-53226829D01*
X83608504Y-53224297D01*
X83608500Y-53224295D01*
X83454639Y-53162755D01*
X83454634Y-53162754D01*
X83448302Y-53160221D01*
X83441575Y-53159107D01*
X83441570Y-53159106D01*
X83278090Y-53132042D01*
X83278086Y-53132042D01*
X83271352Y-53130927D01*
X83264535Y-53131284D01*
X83264531Y-53131284D01*
X83117331Y-53138999D01*
X83092240Y-53140314D01*
X83085667Y-53142125D01*
X83085664Y-53142125D01*
X82925902Y-53186130D01*
X82925899Y-53186131D01*
X82919321Y-53187943D01*
X82760664Y-53271594D01*
X82755451Y-53275999D01*
X82755447Y-53276002D01*
X82694339Y-53327643D01*
X82623671Y-53387362D01*
X82619524Y-53392786D01*
X82619523Y-53392787D01*
X82518877Y-53524426D01*
X82518874Y-53524430D01*
X82514733Y-53529847D01*
X82438933Y-53692401D01*
X82399807Y-53867440D01*
X82398014Y-53867039D01*
X82372126Y-53924465D01*
X82312588Y-53963139D01*
X82241592Y-53963486D01*
X82181680Y-53925394D01*
X82151872Y-53860958D01*
X82150500Y-53842418D01*
X82150500Y-53015354D01*
X82147382Y-52989154D01*
X82101939Y-52886847D01*
X82036982Y-52822003D01*
X82002903Y-52759720D01*
X82000000Y-52732830D01*
X82000000Y-52626000D01*
X82020002Y-52557879D01*
X82073658Y-52511386D01*
X82126000Y-52500000D01*
X84447810Y-52500000D01*
X84515931Y-52520002D01*
G37*
%TD.AperFunction*%
%TD*%
%TA.AperFunction,Conductor*%
%TO.N,+BATT*%
G36*
X111579621Y-72520002D02*
G01*
X111626114Y-72573658D01*
X111637500Y-72626000D01*
X111637500Y-73874000D01*
X111617498Y-73942121D01*
X111563842Y-73988614D01*
X111511500Y-74000000D01*
X109612436Y-74000000D01*
X109544315Y-73979998D01*
X109511610Y-73949565D01*
X109488642Y-73918919D01*
X109483261Y-73911739D01*
X109366705Y-73824385D01*
X109230316Y-73773255D01*
X109168134Y-73766500D01*
X107926000Y-73766500D01*
X107857879Y-73746498D01*
X107811386Y-73692842D01*
X107800000Y-73640500D01*
X107800000Y-72626000D01*
X107820002Y-72557879D01*
X107873658Y-72511386D01*
X107926000Y-72500000D01*
X111511500Y-72500000D01*
X111579621Y-72520002D01*
G37*
%TD.AperFunction*%
%TD*%
%TA.AperFunction,Conductor*%
%TO.N,VBUS*%
G36*
X79508188Y-52501078D02*
G01*
X79612963Y-52514872D01*
X79644735Y-52523385D01*
X79734674Y-52560639D01*
X79763160Y-52577086D01*
X79840393Y-52636349D01*
X79863651Y-52659607D01*
X79910044Y-52720067D01*
X79935645Y-52786287D01*
X79921381Y-52855836D01*
X79911734Y-52868898D01*
X79912550Y-52869457D01*
X79905981Y-52879051D01*
X79897759Y-52887287D01*
X79852494Y-52989673D01*
X79849500Y-53015354D01*
X79849500Y-53880751D01*
X79829498Y-53948872D01*
X79775842Y-53995365D01*
X79705568Y-54005469D01*
X79640988Y-53975975D01*
X79602604Y-53916249D01*
X79598237Y-53894359D01*
X79586734Y-53788476D01*
X79585997Y-53781691D01*
X79528789Y-53611700D01*
X79436413Y-53457960D01*
X79313178Y-53327643D01*
X79226018Y-53268409D01*
X79170477Y-53230664D01*
X79164834Y-53226829D01*
X79158504Y-53224297D01*
X79158500Y-53224295D01*
X79004639Y-53162755D01*
X79004634Y-53162754D01*
X78998302Y-53160221D01*
X78991575Y-53159107D01*
X78991570Y-53159106D01*
X78828090Y-53132042D01*
X78828086Y-53132042D01*
X78821352Y-53130927D01*
X78814535Y-53131284D01*
X78814531Y-53131284D01*
X78667331Y-53138999D01*
X78642240Y-53140314D01*
X78635667Y-53142125D01*
X78635664Y-53142125D01*
X78475902Y-53186130D01*
X78475899Y-53186131D01*
X78469321Y-53187943D01*
X78310664Y-53271594D01*
X78305451Y-53275999D01*
X78305447Y-53276002D01*
X78244339Y-53327643D01*
X78173671Y-53387362D01*
X78169524Y-53392786D01*
X78169523Y-53392787D01*
X78068877Y-53524426D01*
X78068874Y-53524430D01*
X78064733Y-53529847D01*
X77988933Y-53692401D01*
X77949807Y-53867440D01*
X77949500Y-53872931D01*
X77949500Y-54204810D01*
X77964003Y-54338309D01*
X78021211Y-54508300D01*
X78113587Y-54662040D01*
X78118278Y-54667000D01*
X78118279Y-54667002D01*
X78133721Y-54683331D01*
X78236822Y-54792357D01*
X78242467Y-54796193D01*
X78242469Y-54796195D01*
X78340790Y-54863013D01*
X78385166Y-54893171D01*
X78391496Y-54895703D01*
X78391500Y-54895705D01*
X78545361Y-54957245D01*
X78545366Y-54957246D01*
X78551698Y-54959779D01*
X78558425Y-54960893D01*
X78558430Y-54960894D01*
X78721910Y-54987958D01*
X78721914Y-54987958D01*
X78728648Y-54989073D01*
X78735465Y-54988716D01*
X78735469Y-54988716D01*
X78882669Y-54981001D01*
X78907760Y-54979686D01*
X78914333Y-54977875D01*
X78914336Y-54977875D01*
X79074098Y-54933870D01*
X79074101Y-54933869D01*
X79080679Y-54932057D01*
X79239336Y-54848406D01*
X79244549Y-54844001D01*
X79244553Y-54843998D01*
X79371115Y-54737044D01*
X79376329Y-54732638D01*
X79414027Y-54683331D01*
X79481123Y-54595574D01*
X79481126Y-54595570D01*
X79485267Y-54590153D01*
X79561067Y-54427599D01*
X79600193Y-54252560D01*
X79601986Y-54252961D01*
X79627874Y-54195535D01*
X79687412Y-54156861D01*
X79758408Y-54156514D01*
X79818320Y-54194606D01*
X79848128Y-54259042D01*
X79849500Y-54277582D01*
X79849500Y-54454646D01*
X79852618Y-54480846D01*
X79856456Y-54489486D01*
X79856456Y-54489487D01*
X79893337Y-54572519D01*
X79893339Y-54572521D01*
X79898061Y-54583153D01*
X79912519Y-54597586D01*
X79946597Y-54659867D01*
X79949500Y-54686757D01*
X79949500Y-54810934D01*
X79952564Y-54820365D01*
X79952565Y-54820369D01*
X79956297Y-54831854D01*
X79960913Y-54851079D01*
X79964354Y-54872805D01*
X79968855Y-54881638D01*
X79968856Y-54881642D01*
X79974341Y-54892407D01*
X79981905Y-54910667D01*
X79988703Y-54931589D01*
X79988269Y-54931730D01*
X80000000Y-54980593D01*
X80000000Y-56000000D01*
X84500000Y-60500000D01*
X87696002Y-60500000D01*
X87764123Y-60520002D01*
X87810616Y-60573658D01*
X87820720Y-60643932D01*
X87809202Y-60681333D01*
X87764114Y-60773574D01*
X87759819Y-60782361D01*
X87749500Y-60853096D01*
X87749500Y-61046904D01*
X87750169Y-61051452D01*
X87750170Y-61051459D01*
X87758577Y-61108569D01*
X87760003Y-61118254D01*
X87813263Y-61226732D01*
X87898790Y-61312110D01*
X87940032Y-61332270D01*
X87949308Y-61336804D01*
X88001724Y-61384690D01*
X88019931Y-61453313D01*
X87998147Y-61520885D01*
X87949505Y-61563107D01*
X87907616Y-61583673D01*
X87907614Y-61583674D01*
X87898268Y-61588263D01*
X87812890Y-61673790D01*
X87759819Y-61782361D01*
X87758408Y-61792036D01*
X87758407Y-61792038D01*
X87752506Y-61832492D01*
X87749500Y-61853096D01*
X87749500Y-61883920D01*
X87729498Y-61952041D01*
X87675842Y-61998534D01*
X87670737Y-62000000D01*
X87500000Y-62000000D01*
X86500000Y-63000000D01*
X86500000Y-73500000D01*
X87500000Y-74500000D01*
X92491742Y-74500000D01*
X92508188Y-74501078D01*
X92612963Y-74514872D01*
X92644735Y-74523385D01*
X92734674Y-74560639D01*
X92763160Y-74577086D01*
X92840393Y-74636349D01*
X92863651Y-74659607D01*
X92922914Y-74736840D01*
X92939361Y-74765326D01*
X92976615Y-74855265D01*
X92985128Y-74887036D01*
X92997835Y-74983553D01*
X92997835Y-75016447D01*
X92985128Y-75112964D01*
X92976615Y-75144735D01*
X92939361Y-75234674D01*
X92922914Y-75263160D01*
X92863651Y-75340393D01*
X92840393Y-75363651D01*
X92763160Y-75422914D01*
X92734674Y-75439361D01*
X92644735Y-75476615D01*
X92612963Y-75485128D01*
X92508188Y-75498922D01*
X92491742Y-75500000D01*
X84215365Y-75500000D01*
X84198919Y-75498922D01*
X84094144Y-75485128D01*
X84062372Y-75476615D01*
X83972431Y-75439360D01*
X83943948Y-75422916D01*
X83860094Y-75358572D01*
X83847712Y-75347712D01*
X83152288Y-74652288D01*
X83141428Y-74639906D01*
X83077084Y-74556052D01*
X83060640Y-74527569D01*
X83023385Y-74437628D01*
X83014872Y-74405856D01*
X83001078Y-74301081D01*
X83000000Y-74284635D01*
X83000000Y-64250000D01*
X80718302Y-62072016D01*
X77660912Y-59153597D01*
X77649455Y-59141082D01*
X77581573Y-59056079D01*
X77564193Y-59027025D01*
X77524775Y-58934903D01*
X77515759Y-58902267D01*
X77501143Y-58794479D01*
X77500000Y-58777548D01*
X77500000Y-53008258D01*
X77501078Y-52991812D01*
X77514872Y-52887037D01*
X77523385Y-52855265D01*
X77560639Y-52765326D01*
X77577086Y-52736840D01*
X77636349Y-52659607D01*
X77659607Y-52636349D01*
X77736840Y-52577086D01*
X77765326Y-52560639D01*
X77855265Y-52523385D01*
X77887037Y-52514872D01*
X77991812Y-52501078D01*
X78008258Y-52500000D01*
X79491742Y-52500000D01*
X79508188Y-52501078D01*
G37*
%TD.AperFunction*%
%TD*%
%TA.AperFunction,Conductor*%
%TO.N,GND*%
G36*
X109136195Y-74295502D02*
G01*
X109161771Y-74317258D01*
X109165550Y-74321461D01*
X109167595Y-74323364D01*
X109167600Y-74323369D01*
X109196197Y-74349979D01*
X109198255Y-74351894D01*
X109269670Y-74407355D01*
X109401196Y-74467421D01*
X109424950Y-74474396D01*
X109464994Y-74486154D01*
X109464998Y-74486155D01*
X109469317Y-74487423D01*
X109473765Y-74488063D01*
X109473772Y-74488064D01*
X109607988Y-74507361D01*
X109607995Y-74507362D01*
X109612436Y-74508000D01*
X111511500Y-74508000D01*
X111619480Y-74496391D01*
X111622764Y-74495677D01*
X111622768Y-74495676D01*
X111647839Y-74490222D01*
X111671822Y-74485005D01*
X111679715Y-74482378D01*
X111750666Y-74479847D01*
X111811722Y-74516077D01*
X111843499Y-74579566D01*
X111845500Y-74601932D01*
X111845500Y-75474000D01*
X111825498Y-75542121D01*
X111771842Y-75588614D01*
X111719500Y-75600000D01*
X110206738Y-75600000D01*
X110138617Y-75579998D01*
X110092124Y-75526342D01*
X110082452Y-75494714D01*
X110002978Y-75017867D01*
X110002978Y-75017866D01*
X110000000Y-75000000D01*
X109367731Y-75000000D01*
X109298548Y-74978584D01*
X109292713Y-74972759D01*
X109282076Y-74968056D01*
X109282074Y-74968055D01*
X109198992Y-74931325D01*
X109198993Y-74931325D01*
X109190327Y-74927494D01*
X109164646Y-74924500D01*
X107926000Y-74924500D01*
X107857879Y-74904498D01*
X107811386Y-74850842D01*
X107800000Y-74798500D01*
X107800000Y-74401500D01*
X107820002Y-74333379D01*
X107873658Y-74286886D01*
X107926000Y-74275500D01*
X109068074Y-74275500D01*
X109136195Y-74295502D01*
G37*
%TD.AperFunction*%
%TD*%
M02*
