%TF.GenerationSoftware,KiCad,Pcbnew,(6.0.0)*%
%TF.CreationDate,2022-02-10T17:28:00+01:00*%
%TF.ProjectId,ESP32IoTPlatform,45535033-3249-46f5-9450-6c6174666f72,rev?*%
%TF.SameCoordinates,Original*%
%TF.FileFunction,Paste,Top*%
%TF.FilePolarity,Positive*%
%FSLAX46Y46*%
G04 Gerber Fmt 4.6, Leading zero omitted, Abs format (unit mm)*
G04 Created by KiCad (PCBNEW (6.0.0)) date 2022-02-10 17:28:00*
%MOMM*%
%LPD*%
G01*
G04 APERTURE LIST*
G04 Aperture macros list*
%AMRoundRect*
0 Rectangle with rounded corners*
0 $1 Rounding radius*
0 $2 $3 $4 $5 $6 $7 $8 $9 X,Y pos of 4 corners*
0 Add a 4 corners polygon primitive as box body*
4,1,4,$2,$3,$4,$5,$6,$7,$8,$9,$2,$3,0*
0 Add four circle primitives for the rounded corners*
1,1,$1+$1,$2,$3*
1,1,$1+$1,$4,$5*
1,1,$1+$1,$6,$7*
1,1,$1+$1,$8,$9*
0 Add four rect primitives between the rounded corners*
20,1,$1+$1,$2,$3,$4,$5,0*
20,1,$1+$1,$4,$5,$6,$7,0*
20,1,$1+$1,$6,$7,$8,$9,0*
20,1,$1+$1,$8,$9,$2,$3,0*%
%AMRotRect*
0 Rectangle, with rotation*
0 The origin of the aperture is its center*
0 $1 length*
0 $2 width*
0 $3 Rotation angle, in degrees counterclockwise*
0 Add horizontal line*
21,1,$1,$2,0,0,$3*%
G04 Aperture macros list end*
%ADD10R,1.800000X2.500000*%
%ADD11RoundRect,0.243750X-0.456250X0.243750X-0.456250X-0.243750X0.456250X-0.243750X0.456250X0.243750X0*%
%ADD12RoundRect,0.250000X1.025000X-0.787500X1.025000X0.787500X-1.025000X0.787500X-1.025000X-0.787500X0*%
%ADD13RoundRect,0.243750X0.456250X-0.243750X0.456250X0.243750X-0.456250X0.243750X-0.456250X-0.243750X0*%
%ADD14RoundRect,0.243750X0.243750X0.456250X-0.243750X0.456250X-0.243750X-0.456250X0.243750X-0.456250X0*%
%ADD15R,0.300000X0.850000*%
%ADD16R,0.400000X1.350000*%
%ADD17R,2.900000X1.900000*%
%ADD18RoundRect,0.243750X-0.243750X-0.456250X0.243750X-0.456250X0.243750X0.456250X-0.243750X0.456250X0*%
%ADD19RoundRect,0.250000X-0.275000X0.275000X-0.275000X-0.275000X0.275000X-0.275000X0.275000X0.275000X0*%
%ADD20RoundRect,0.062500X-0.062500X0.350000X-0.062500X-0.350000X0.062500X-0.350000X0.062500X0.350000X0*%
%ADD21RoundRect,0.062500X-0.350000X0.062500X-0.350000X-0.062500X0.350000X-0.062500X0.350000X0.062500X0*%
%ADD22R,1.220000X0.650000*%
%ADD23R,0.900000X0.800000*%
%ADD24R,2.160000X1.120000*%
%ADD25R,1.060000X0.650000*%
%ADD26R,0.800000X0.900000*%
%ADD27R,0.600000X0.450000*%
%ADD28R,1.000000X1.500000*%
%ADD29R,0.650000X0.400000*%
%ADD30R,0.800000X1.500000*%
%ADD31R,1.300000X1.400000*%
%ADD32R,1.400000X1.900000*%
%ADD33R,0.950000X1.000000*%
%ADD34R,1.500000X3.400000*%
%ADD35R,1.000000X3.500000*%
%ADD36RoundRect,0.250000X0.375000X0.625000X-0.375000X0.625000X-0.375000X-0.625000X0.375000X-0.625000X0*%
%ADD37O,2.500000X1.000000*%
%ADD38R,1.550000X1.300000*%
%ADD39R,2.000000X0.900000*%
%ADD40R,0.900000X2.000000*%
%ADD41R,5.000000X5.000000*%
%ADD42R,0.500000X0.350000*%
%ADD43RotRect,1.350000X1.000000X45.000000*%
%ADD44RotRect,2.000000X1.800000X45.000000*%
%ADD45RoundRect,0.075000X-0.350000X-0.075000X0.350000X-0.075000X0.350000X0.075000X-0.350000X0.075000X0*%
%ADD46RoundRect,0.075000X0.075000X-0.350000X0.075000X0.350000X-0.075000X0.350000X-0.075000X-0.350000X0*%
%ADD47RoundRect,0.250000X0.262500X0.450000X-0.262500X0.450000X-0.262500X-0.450000X0.262500X-0.450000X0*%
%ADD48RoundRect,0.250000X0.450000X-0.262500X0.450000X0.262500X-0.450000X0.262500X-0.450000X-0.262500X0*%
G04 APERTURE END LIST*
D10*
%TO.C,D12*%
X62400000Y-113800000D03*
X62400000Y-109800000D03*
%TD*%
D11*
%TO.C,R14*%
X74600000Y-107262500D03*
X74600000Y-109137500D03*
%TD*%
D12*
%TO.C,C3*%
X120606999Y-58056499D03*
X120606999Y-51831499D03*
%TD*%
D13*
%TO.C,C4*%
X89000000Y-56737500D03*
X89000000Y-54862500D03*
%TD*%
%TO.C,C5*%
X91800000Y-56737500D03*
X91800000Y-54862500D03*
%TD*%
%TO.C,C6*%
X103600000Y-75537500D03*
X103600000Y-73662500D03*
%TD*%
%TO.C,C7*%
X111000000Y-75068750D03*
X111000000Y-73193750D03*
%TD*%
D11*
%TO.C,D1*%
X88800000Y-73062500D03*
X88800000Y-74937500D03*
%TD*%
%TO.C,D2*%
X92000000Y-73062500D03*
X92000000Y-74937500D03*
%TD*%
D14*
%TO.C,D3*%
X101937500Y-69400000D03*
X100062500Y-69400000D03*
%TD*%
D15*
%TO.C,J1*%
X84500000Y-51060000D03*
X77500000Y-51060000D03*
D16*
X79700000Y-53735000D03*
X80350000Y-53735000D03*
X81000000Y-53735000D03*
X81650000Y-53735000D03*
X82300000Y-53735000D03*
D17*
X81000000Y-51060000D03*
%TD*%
D11*
%TO.C,R2*%
X88800000Y-67662500D03*
X88800000Y-69537500D03*
%TD*%
%TO.C,R3*%
X92000000Y-67662500D03*
X92000000Y-69537500D03*
%TD*%
D18*
%TO.C,R4*%
X99325000Y-74600000D03*
X101200000Y-74600000D03*
%TD*%
D14*
%TO.C,R5*%
X103437500Y-79200000D03*
X101562500Y-79200000D03*
%TD*%
D19*
%TO.C,U2*%
X89750000Y-61550000D03*
X89750000Y-62850000D03*
X91050000Y-62850000D03*
X91050000Y-61550000D03*
D20*
X91650000Y-60262500D03*
X91150000Y-60262500D03*
X90650000Y-60262500D03*
X90150000Y-60262500D03*
X89650000Y-60262500D03*
X89150000Y-60262500D03*
D21*
X88462500Y-60950000D03*
X88462500Y-61450000D03*
X88462500Y-61950000D03*
X88462500Y-62450000D03*
X88462500Y-62950000D03*
X88462500Y-63450000D03*
D20*
X89150000Y-64137500D03*
X89650000Y-64137500D03*
X90150000Y-64137500D03*
X90650000Y-64137500D03*
X91150000Y-64137500D03*
X91650000Y-64137500D03*
D21*
X92337500Y-63450000D03*
X92337500Y-62950000D03*
X92337500Y-62450000D03*
X92337500Y-61950000D03*
X92337500Y-61450000D03*
X92337500Y-60950000D03*
%TD*%
D22*
%TO.C,U3*%
X108510000Y-75550000D03*
X108510000Y-74600000D03*
X108510000Y-73650000D03*
X105890000Y-73650000D03*
X105890000Y-75550000D03*
%TD*%
D23*
%TO.C,Q2*%
X89380999Y-138050000D03*
X89380999Y-139950000D03*
X91380999Y-139000000D03*
%TD*%
D18*
%TO.C,R6*%
X164672499Y-57150999D03*
X166547499Y-57150999D03*
%TD*%
%TO.C,R7*%
X164672499Y-53750999D03*
X166547499Y-53750999D03*
%TD*%
D24*
%TO.C,SW2*%
X168044999Y-60953999D03*
X168044999Y-63493999D03*
X174774999Y-63493999D03*
X174774999Y-60953999D03*
%TD*%
D11*
%TO.C,C13*%
X100068750Y-62262500D03*
X100068750Y-64137500D03*
%TD*%
%TO.C,C14*%
X108000000Y-62112500D03*
X108000000Y-63987500D03*
%TD*%
D25*
%TO.C,IC1*%
X103300000Y-62100000D03*
X103300000Y-63050000D03*
X103300000Y-64000000D03*
X105500000Y-64000000D03*
X105500000Y-62100000D03*
%TD*%
D26*
%TO.C,Q1*%
X95250000Y-62200000D03*
X97150000Y-62200000D03*
X96200000Y-60200000D03*
%TD*%
D18*
%TO.C,R10*%
X95462500Y-69400000D03*
X97337500Y-69400000D03*
%TD*%
D27*
%TO.C,D4*%
X97250000Y-65800000D03*
X95150000Y-65800000D03*
%TD*%
D13*
%TO.C,C15*%
X219222999Y-104412499D03*
X219222999Y-102537499D03*
%TD*%
%TO.C,C16*%
X219222999Y-112540499D03*
X219222999Y-110665499D03*
%TD*%
%TO.C,C17*%
X219222999Y-120795499D03*
X219222999Y-118920499D03*
%TD*%
D28*
%TO.C,D5*%
X221559999Y-104400999D03*
X224759999Y-104400999D03*
X224759999Y-99500999D03*
X221559999Y-99500999D03*
%TD*%
%TO.C,D6*%
X221559999Y-112528999D03*
X224759999Y-112528999D03*
X224759999Y-107628999D03*
X221559999Y-107628999D03*
%TD*%
%TO.C,D7*%
X221559999Y-120783999D03*
X224759999Y-120783999D03*
X224759999Y-115883999D03*
X221559999Y-115883999D03*
%TD*%
D14*
%TO.C,D10*%
X97414499Y-126444999D03*
X95539499Y-126444999D03*
%TD*%
%TO.C,R12*%
X97414499Y-130000999D03*
X95539499Y-130000999D03*
%TD*%
D18*
%TO.C,R13*%
X89443499Y-134900000D03*
X91318499Y-134900000D03*
%TD*%
D24*
%TO.C,SW7*%
X107358000Y-137200000D03*
X100628000Y-137200000D03*
%TD*%
D18*
%TO.C,R15*%
X53112500Y-82880000D03*
X54987500Y-82880000D03*
%TD*%
D14*
%TO.C,R16*%
X54987500Y-86563000D03*
X53112500Y-86563000D03*
%TD*%
D29*
%TO.C,Q6*%
X106450000Y-68750000D03*
X106450000Y-69400000D03*
X106450000Y-70050000D03*
X108350000Y-70050000D03*
X108350000Y-69400000D03*
X108350000Y-68750000D03*
%TD*%
%TO.C,Q7*%
X108150000Y-78450000D03*
X108150000Y-79100000D03*
X108150000Y-79750000D03*
X110050000Y-79750000D03*
X110050000Y-79100000D03*
X110050000Y-78450000D03*
%TD*%
D26*
%TO.C,Q8*%
X95450000Y-75600000D03*
X97350000Y-75600000D03*
X96400000Y-73600000D03*
%TD*%
D18*
%TO.C,R28*%
X91725000Y-79200000D03*
X93600000Y-79200000D03*
%TD*%
%TO.C,R29*%
X97325000Y-79200000D03*
X99200000Y-79200000D03*
%TD*%
D14*
%TO.C,R21*%
X104337500Y-86000000D03*
X102462500Y-86000000D03*
%TD*%
D24*
%TO.C,SW15*%
X110085000Y-95200000D03*
X103355000Y-95200000D03*
%TD*%
D30*
%TO.C,SD1*%
X208469999Y-55147999D03*
X209569999Y-55547999D03*
X210669999Y-55147999D03*
X211769999Y-54947999D03*
X212869999Y-55147999D03*
X213969999Y-54947999D03*
X215069999Y-55147999D03*
X216169999Y-55147999D03*
D31*
X215359999Y-66007999D03*
X209659999Y-66007999D03*
D32*
X216959999Y-52857999D03*
X203809999Y-51857999D03*
D33*
X213969999Y-66207999D03*
%TD*%
D24*
%TO.C,SW19*%
X188244999Y-53940999D03*
X188244999Y-56480999D03*
X188244999Y-59020999D03*
X188244999Y-61560999D03*
X194974999Y-61560999D03*
X194974999Y-59020999D03*
X194974999Y-56480999D03*
X194974999Y-53940999D03*
%TD*%
D34*
%TO.C,JST1*%
X101550000Y-50356750D03*
X94850000Y-50356750D03*
D35*
X99200000Y-56106750D03*
X97200000Y-56106750D03*
%TD*%
D24*
%TO.C,SW10*%
X149554999Y-108407999D03*
X149554999Y-105867999D03*
X142824999Y-105867999D03*
X142824999Y-108407999D03*
%TD*%
D14*
%TO.C,C2*%
X112137500Y-65800000D03*
X110262500Y-65800000D03*
%TD*%
D13*
%TO.C,C1*%
X126702999Y-62104499D03*
X126702999Y-60229499D03*
%TD*%
D10*
%TO.C,D11*%
X85173999Y-135239999D03*
X85173999Y-139239999D03*
%TD*%
D24*
%TO.C,SW8*%
X73888999Y-99000000D03*
X67158999Y-99000000D03*
%TD*%
%TO.C,SW6*%
X126822999Y-96723999D03*
X133552999Y-96723999D03*
%TD*%
D18*
%TO.C,R11*%
X136362499Y-96723999D03*
X138237499Y-96723999D03*
%TD*%
D36*
%TO.C,D9*%
X143144999Y-96723999D03*
X140344999Y-96723999D03*
%TD*%
D24*
%TO.C,SW11*%
X167691999Y-97623999D03*
X167691999Y-100163999D03*
X167691999Y-102703999D03*
X174421999Y-102703999D03*
X174421999Y-100163999D03*
X174421999Y-97623999D03*
%TD*%
D13*
%TO.C,C20*%
X169847999Y-110926499D03*
X169847999Y-109051499D03*
%TD*%
%TO.C,C19*%
X173403999Y-110926499D03*
X173403999Y-109051499D03*
%TD*%
%TO.C,D13*%
X173403999Y-114609499D03*
X173403999Y-112734499D03*
%TD*%
D26*
%TO.C,Q4*%
X164706999Y-114544999D03*
X166606999Y-114544999D03*
X165656999Y-112544999D03*
%TD*%
D13*
%TO.C,R17*%
X165600000Y-110926499D03*
X165600000Y-109051499D03*
%TD*%
D11*
%TO.C,R18*%
X169847999Y-112734499D03*
X169847999Y-114609499D03*
%TD*%
D37*
%TO.C,U7*%
X188571599Y-99259599D03*
X188571599Y-101779599D03*
X188571599Y-104319599D03*
X188571599Y-106859599D03*
X188571599Y-109399599D03*
X188571599Y-111939599D03*
X204081599Y-111939599D03*
X204081599Y-109399599D03*
X204081599Y-106859599D03*
X204081599Y-104319599D03*
X204081599Y-101779599D03*
X204081599Y-99239599D03*
%TD*%
D24*
%TO.C,SW9*%
X71004000Y-84404000D03*
X71004000Y-81864000D03*
X64274000Y-81864000D03*
X64274000Y-84404000D03*
%TD*%
D11*
%TO.C,R20*%
X96600000Y-113262500D03*
X96600000Y-115137500D03*
%TD*%
D24*
%TO.C,SW14*%
X85835000Y-113200000D03*
X92565000Y-113200000D03*
%TD*%
D38*
%TO.C,SW1*%
X107220000Y-54850000D03*
X115180000Y-54850000D03*
X115180000Y-50350000D03*
X107220000Y-50350000D03*
%TD*%
D24*
%TO.C,SW5*%
X219418999Y-93750999D03*
X226148999Y-93750999D03*
%TD*%
D39*
%TO.C,U1*%
X129734999Y-60847999D03*
X129734999Y-62117999D03*
X129734999Y-63387999D03*
X129734999Y-64657999D03*
X129734999Y-65927999D03*
X129734999Y-67197999D03*
X129734999Y-68467999D03*
X129734999Y-69737999D03*
X129734999Y-71007999D03*
X129734999Y-72277999D03*
X129734999Y-73547999D03*
X129734999Y-74817999D03*
X129734999Y-76087999D03*
X129734999Y-77357999D03*
D40*
X132519999Y-78357999D03*
X133789999Y-78357999D03*
X135059999Y-78357999D03*
X136329999Y-78357999D03*
X137599999Y-78357999D03*
X138869999Y-78357999D03*
X140139999Y-78357999D03*
X141409999Y-78357999D03*
X142679999Y-78357999D03*
X143949999Y-78357999D03*
D39*
X146734999Y-77357999D03*
X146734999Y-76087999D03*
X146734999Y-74817999D03*
X146734999Y-73547999D03*
X146734999Y-72277999D03*
X146734999Y-71007999D03*
X146734999Y-69737999D03*
X146734999Y-68467999D03*
X146734999Y-67197999D03*
X146734999Y-65927999D03*
X146734999Y-64657999D03*
X146734999Y-63387999D03*
X146734999Y-62117999D03*
X146734999Y-60847999D03*
D41*
X137234999Y-68347999D03*
%TD*%
D14*
%TO.C,R27*%
X61504500Y-65523000D03*
X59629500Y-65523000D03*
%TD*%
D24*
%TO.C,SW18*%
X74165000Y-62600000D03*
X67435000Y-62600000D03*
%TD*%
D26*
%TO.C,Q5*%
X61517000Y-69222000D03*
X59617000Y-69222000D03*
X60567000Y-71222000D03*
%TD*%
D18*
%TO.C,R1*%
X110262500Y-62000000D03*
X112137500Y-62000000D03*
%TD*%
D14*
%TO.C,C8*%
X223937500Y-83600000D03*
X222062500Y-83600000D03*
%TD*%
D24*
%TO.C,SW3*%
X208844999Y-72680999D03*
X208844999Y-75220999D03*
X215574999Y-75220999D03*
X215574999Y-72680999D03*
%TD*%
D18*
%TO.C,R8*%
X225462500Y-74950999D03*
X227337500Y-74950999D03*
%TD*%
D42*
%TO.C,U4*%
X221993999Y-80100000D03*
X221993999Y-79450000D03*
X221993999Y-78800000D03*
X221993999Y-78150000D03*
X224043999Y-78150000D03*
X224043999Y-78800000D03*
X224043999Y-79450000D03*
X224043999Y-80100000D03*
%TD*%
D43*
%TO.C,T1*%
X195155465Y-138647279D03*
X196163092Y-139654906D03*
X197170719Y-140662533D03*
X200211279Y-133591465D03*
X201218906Y-134599092D03*
X202226533Y-135606719D03*
D44*
X195827217Y-134263217D03*
X201554781Y-139990781D03*
%TD*%
D24*
%TO.C,SW16*%
X167625999Y-128023999D03*
X174355999Y-128023999D03*
%TD*%
D14*
%TO.C,R22*%
X187168499Y-132086999D03*
X185293499Y-132086999D03*
%TD*%
%TO.C,R23*%
X187168499Y-135769999D03*
X185293499Y-135769999D03*
%TD*%
%TO.C,R24*%
X187168499Y-139452999D03*
X185293499Y-139452999D03*
%TD*%
D24*
%TO.C,SW17*%
X167625999Y-136658999D03*
X167625999Y-139198999D03*
X167625999Y-141738999D03*
X167625999Y-144278999D03*
X167625999Y-146818999D03*
X174355999Y-146818999D03*
X174355999Y-144278999D03*
X174355999Y-141738999D03*
X174355999Y-139198999D03*
X174355999Y-136658999D03*
%TD*%
D14*
%TO.C,R25*%
X187168499Y-143135999D03*
X185293499Y-143135999D03*
%TD*%
D18*
%TO.C,R26*%
X185293499Y-146818999D03*
X187168499Y-146818999D03*
%TD*%
%TO.C,C9*%
X185817999Y-85550999D03*
X187692999Y-85550999D03*
%TD*%
D13*
%TO.C,C10*%
X191253999Y-80050499D03*
X191253999Y-78175499D03*
%TD*%
%TO.C,C12*%
X194809999Y-80050499D03*
X194809999Y-78175499D03*
%TD*%
D24*
%TO.C,SW4*%
X167197999Y-78350999D03*
X167197999Y-80890999D03*
X173927999Y-80890999D03*
X173927999Y-78350999D03*
%TD*%
D18*
%TO.C,C11*%
X185817999Y-73397999D03*
X187692999Y-73397999D03*
%TD*%
%TO.C,R9*%
X182388999Y-85550999D03*
X184263999Y-85550999D03*
%TD*%
D45*
%TO.C,U5*%
X183090999Y-77608999D03*
X183090999Y-78108999D03*
X183090999Y-78608999D03*
X183090999Y-79108999D03*
X183090999Y-79608999D03*
X183090999Y-80108999D03*
D46*
X183790999Y-80808999D03*
X184290999Y-80808999D03*
X184790999Y-80808999D03*
X185290999Y-80808999D03*
X185790999Y-80808999D03*
X186290999Y-80808999D03*
D45*
X186990999Y-80108999D03*
X186990999Y-79608999D03*
X186990999Y-79108999D03*
X186990999Y-78608999D03*
X186990999Y-78108999D03*
X186990999Y-77608999D03*
D46*
X186290999Y-76908999D03*
X185790999Y-76908999D03*
X185290999Y-76908999D03*
X184790999Y-76908999D03*
X184290999Y-76908999D03*
X183790999Y-76908999D03*
%TD*%
D47*
%TO.C,R31*%
X166512500Y-116400000D03*
X164687500Y-116400000D03*
%TD*%
%TO.C,R32*%
X63912500Y-99000000D03*
X62087500Y-99000000D03*
%TD*%
D48*
%TO.C,R30*%
X219209999Y-99546499D03*
X219209999Y-97721499D03*
%TD*%
M02*
